<svg xmlns="http://www.w3.org/2000/svg" xmlns:xlink="http://www.w3.org/1999/xlink" width="1080" zoomAndPan="magnify" viewBox="0 0 810 809.999993" height="1080" preserveAspectRatio="xMidYMid meet" version="1.0"><defs><clipPath id="768b8a6a9c"><path d="M 321 701 L 456 701 L 456 789.261719 L 321 789.261719 Z M 321 701 " clip-rule="nonzero"/></clipPath><clipPath id="156ff23f4f"><path d="M 369 20.511719 L 393 20.511719 L 393 132 L 369 132 Z M 369 20.511719 " clip-rule="nonzero"/></clipPath><clipPath id="226000f1ea"><path d="M 591 297 L 693.75 297 L 693.75 320 L 591 320 Z M 591 297 " clip-rule="nonzero"/></clipPath></defs><path fill="#000000" d="M 471.757812 615.8125 L 305.128906 615.8125 C 298.890625 615.8125 293.804688 610.726562 293.804688 604.488281 L 293.804688 574.320312 C 293.804688 533.441406 278.652344 493.324219 251.117188 461.375 C 222.832031 428.539062 207.246094 386.554688 207.246094 343.160156 C 207.246094 247.25 282.183594 167.796875 377.855469 162.277344 C 429.652344 159.285156 480.433594 178.921875 517.15625 216.167969 C 553.894531 253.414062 572.84375 304.464844 569.148438 356.25 C 566.324219 395.8125 550.992188 432.535156 524.816406 462.449219 C 497.890625 493.203125 483.066406 532.753906 483.066406 573.8125 L 483.066406 604.503906 C 483.082031 610.726562 477.996094 615.8125 471.757812 615.8125 Z M 316.226562 593.375 L 460.628906 593.375 L 460.628906 573.796875 C 460.628906 527.308594 477.429688 482.507812 507.925781 447.671875 C 530.859375 421.464844 544.289062 389.304688 546.773438 354.648438 C 550.003906 309.3125 533.386719 264.574219 501.179688 231.933594 C 468.976562 199.296875 424.507812 182.050781 379.140625 184.699219 C 295.332031 189.527344 229.679688 259.144531 229.679688 343.191406 C 229.679688 381.214844 243.324219 417.996094 268.109375 446.757812 C 299.144531 482.777344 316.226562 528.085938 316.226562 574.351562 Z M 316.226562 593.375 " fill-opacity="1" fill-rule="nonzero"/><path fill="#000000" d="M 475.019531 651.953125 L 301.839844 651.953125 C 285.90625 651.953125 272.953125 638.984375 272.953125 623.050781 L 272.953125 622.261719 C 272.953125 606.328125 285.90625 593.375 301.839844 593.375 L 475.019531 593.375 C 490.949219 593.375 503.902344 606.328125 503.902344 622.261719 L 503.902344 623.050781 C 503.917969 638.984375 490.949219 651.953125 475.019531 651.953125 Z M 301.839844 615.8125 C 298.335938 615.8125 295.390625 618.773438 295.390625 622.261719 L 295.390625 623.050781 C 295.390625 626.554688 298.351562 629.515625 301.839844 629.515625 L 475.019531 629.515625 C 478.519531 629.515625 481.46875 626.554688 481.46875 623.050781 L 481.46875 622.261719 C 481.46875 618.761719 478.503906 615.8125 475.019531 615.8125 Z M 301.839844 615.8125 " fill-opacity="1" fill-rule="nonzero"/><path fill="#000000" d="M 475.019531 688.089844 L 301.839844 688.089844 C 285.90625 688.089844 272.953125 675.136719 272.953125 659.207031 L 272.953125 658.414062 C 272.953125 642.484375 285.90625 629.53125 301.839844 629.53125 L 475.019531 629.53125 C 490.949219 629.53125 503.902344 642.484375 503.902344 658.414062 L 503.902344 659.207031 C 503.917969 675.121094 490.949219 688.089844 475.019531 688.089844 Z M 301.839844 651.953125 C 298.335938 651.953125 295.390625 654.914062 295.390625 658.398438 L 295.390625 659.191406 C 295.390625 662.691406 298.351562 665.636719 301.839844 665.636719 L 475.019531 665.636719 C 478.519531 665.636719 481.46875 662.675781 481.46875 659.191406 L 481.46875 658.398438 C 481.46875 654.898438 478.503906 651.953125 475.019531 651.953125 Z M 301.839844 651.953125 " fill-opacity="1" fill-rule="nonzero"/><path fill="#000000" d="M 475.019531 724.210938 L 301.839844 724.210938 C 285.90625 724.210938 272.953125 711.257812 272.953125 695.328125 L 272.953125 694.535156 C 272.953125 678.605469 285.90625 665.636719 301.839844 665.636719 L 475.019531 665.636719 C 490.949219 665.636719 503.902344 678.605469 503.902344 694.535156 L 503.902344 695.328125 C 503.917969 711.257812 490.949219 724.210938 475.019531 724.210938 Z M 301.839844 688.089844 C 298.335938 688.089844 295.390625 691.050781 295.390625 694.550781 L 295.390625 695.328125 C 295.390625 698.828125 298.351562 701.777344 301.839844 701.777344 L 475.019531 701.777344 C 478.519531 701.777344 481.46875 698.8125 481.46875 695.328125 L 481.46875 694.535156 C 481.46875 691.035156 478.503906 688.074219 475.019531 688.074219 L 301.839844 688.074219 Z M 301.839844 688.089844 " fill-opacity="1" fill-rule="nonzero"/><g clip-path="url(#768b8a6a9c)"><path fill="#000000" d="M 389.65625 789.339844 L 387.203125 789.339844 C 350.75 789.339844 321.089844 759.679688 321.089844 723.226562 L 321.089844 712.996094 C 321.089844 706.800781 326.113281 701.777344 332.308594 701.777344 L 444.550781 701.777344 C 450.742188 701.777344 455.769531 706.800781 455.769531 712.996094 L 455.769531 723.226562 C 455.769531 759.679688 426.109375 789.339844 389.65625 789.339844 Z M 343.539062 724.210938 C 344.0625 747.847656 363.449219 766.902344 387.203125 766.902344 L 389.65625 766.902344 C 413.410156 766.902344 432.792969 747.847656 433.316406 724.210938 Z M 343.539062 724.210938 " fill-opacity="1" fill-rule="nonzero"/></g><path fill="#000000" d="M 410.132812 611.492188 C 409.386719 611.492188 408.621094 611.414062 407.875 611.25 C 401.800781 610.007812 397.898438 604.070312 399.140625 598.011719 L 440.214844 397.742188 L 421.171875 406.195312 C 415.742188 408.601562 409.355469 406.359375 406.648438 401.0625 L 388.445312 365.597656 L 370.238281 401.0625 C 367.519531 406.359375 361.144531 408.601562 355.714844 406.195312 L 336.675781 397.742188 L 377.75 598.011719 C 378.992188 604.085938 375.085938 610.007812 369.011719 611.25 C 362.941406 612.492188 357.015625 608.589844 355.777344 602.515625 L 310.320312 380.898438 C 309.480469 376.785156 311.007812 372.539062 314.269531 369.90625 C 317.542969 367.273438 322.015625 366.691406 325.84375 368.394531 L 355.117188 381.378906 L 378.46875 335.90625 C 380.382812 332.167969 384.242188 329.820312 388.445312 329.820312 C 392.648438 329.820312 396.507812 332.167969 398.421875 335.90625 L 421.769531 381.378906 L 451.042969 368.394531 C 454.886719 366.691406 459.359375 367.273438 462.621094 369.90625 C 465.894531 372.539062 467.421875 376.785156 466.570312 380.898438 L 421.113281 602.515625 C 420.019531 607.824219 415.351562 611.492188 410.132812 611.492188 Z M 410.132812 611.492188 " fill-opacity="1" fill-rule="nonzero"/><g clip-path="url(#156ff23f4f)"><path fill="#000000" d="M 380.816406 131.761719 C 374.621094 131.761719 369.597656 126.734375 369.597656 120.542969 L 369.597656 31.949219 C 369.597656 25.753906 374.621094 20.730469 380.816406 20.730469 C 387.007812 20.730469 392.035156 25.753906 392.035156 31.949219 L 392.035156 120.542969 C 392.035156 126.75 387.007812 131.761719 380.816406 131.761719 Z M 380.816406 131.761719 " fill-opacity="1" fill-rule="nonzero"/></g><path fill="#000000" d="M 538.351562 189.78125 C 535.480469 189.78125 532.609375 188.691406 530.425781 186.492188 C 526.042969 182.109375 526.042969 175.003906 530.425781 170.621094 L 588.519531 112.527344 C 592.902344 108.144531 600.007812 108.144531 604.390625 112.527344 C 608.773438 116.910156 608.773438 124.011719 604.390625 128.394531 L 546.292969 186.492188 C 544.09375 188.675781 541.222656 189.78125 538.351562 189.78125 Z M 538.351562 189.78125 " fill-opacity="1" fill-rule="nonzero"/><g clip-path="url(#226000f1ea)"><path fill="#000000" d="M 682.214844 319.46875 L 602.941406 319.46875 C 596.746094 319.46875 591.722656 314.441406 591.722656 308.25 C 591.722656 302.058594 596.746094 297.03125 602.941406 297.03125 L 682.214844 297.03125 C 688.410156 297.03125 693.433594 302.058594 693.433594 308.25 C 693.433594 314.441406 688.410156 319.46875 682.214844 319.46875 Z M 682.214844 319.46875 " fill-opacity="1" fill-rule="nonzero"/></g><path fill="#000000" d="M 236.082031 185.355469 C 233.210938 185.355469 230.339844 184.265625 228.15625 182.066406 L 170.058594 123.96875 C 165.675781 119.585938 165.675781 112.480469 170.058594 108.097656 C 174.441406 103.714844 181.546875 103.714844 185.929688 108.097656 L 244.027344 166.195312 C 248.410156 170.578125 248.410156 177.683594 244.027344 182.066406 C 241.828125 184.25 238.953125 185.355469 236.082031 185.355469 Z M 236.082031 185.355469 " fill-opacity="1" fill-rule="nonzero"/><path fill="#000000" d="M 171.496094 315.039062 L 92.21875 315.039062 C 86.027344 315.039062 81 310.015625 81 303.820312 C 81 297.628906 86.027344 292.605469 92.21875 292.605469 L 171.496094 292.605469 C 177.6875 292.605469 182.714844 297.628906 182.714844 303.820312 C 182.714844 310.015625 177.6875 315.039062 171.496094 315.039062 Z M 171.496094 315.039062 " fill-opacity="1" fill-rule="nonzero"/></svg>