<?xml version="1.0" encoding="UTF-8" standalone="no"?>
<svg
   width="1080"
   zoomAndPan="magnify"
   viewBox="0 0 810 487.5"
   height="650"
   preserveAspectRatio="xMidYMid"
   version="1.0"
   id="svg9"
   sodipodi:docname="like.svg"
   inkscape:version="1.3.2 (091e20e, 2023-11-25)"
   xmlns:inkscape="http://www.inkscape.org/namespaces/inkscape"
   xmlns:sodipodi="http://sodipodi.sourceforge.net/DTD/sodipodi-0.dtd"
   xmlns="http://www.w3.org/2000/svg"
   xmlns:svg="http://www.w3.org/2000/svg">
  <sodipodi:namedview
     id="namedview9"
     pagecolor="#ffffff"
     bordercolor="#000000"
     borderopacity="0.25"
     inkscape:showpageshadow="2"
     inkscape:pageopacity="0.0"
     inkscape:pagecheckerboard="0"
     inkscape:deskcolor="#d1d1d1"
     inkscape:zoom="0.21851852"
     inkscape:cx="537.71186"
     inkscape:cy="540"
     inkscape:window-width="1680"
     inkscape:window-height="997"
     inkscape:window-x="130"
     inkscape:window-y="1105"
     inkscape:window-maximized="1"
     inkscape:current-layer="svg9" />
  <defs
     id="defs3">
    <clipPath
       id="936df8093d">
      <path
         d="M 524.44141,251 H 798.32422 V 582.37891 H 524.44141 Z m 0,0"
         clip-rule="nonzero"
         id="path1" />
    </clipPath>
    <clipPath
       id="0409596842">
      <path
         d="M 11.578125,251 H 286 V 582.37891 H 11.578125 Z m 0,0"
         clip-rule="nonzero"
         id="path2" />
    </clipPath>
    <clipPath
       id="7151a95e27">
      <path
         d="M 225,147.03906 H 585 V 574 H 225 Z m 0,0"
         clip-rule="nonzero"
         id="path3" />
    </clipPath>
  </defs>
  <g
     id="g9"
     transform="translate(0,-105)">
    <g
       clip-path="url(#936df8093d)"
       id="g4"
       transform="translate(0,-25.5)">
      <path
         fill="#000000"
         d="m 791.59375,356.45703 c -5.74609,-18.51172 -14.84766,-35.46875 -27.07031,-50.40234 -12.66016,-15.46875 -28.11719,-28.06641 -45.9375,-37.45313 -17.82813,-9.38672 -36.96094,-14.99609 -56.86719,-16.68359 -19.23438,-1.63281 -38.36719,0.45703 -56.875,6.19922 -4.73828,1.47265 -9.37891,3.16406 -13.91406,5.07031 1.75781,5.08984 3.29687,10.23828 4.62109,15.43359 4.54688,-1.98437 9.23047,-3.72656 14.03516,-5.21875 13.03515,-4.04297 26.36718,-6.04687 39.63281,-6.04687 21.33594,0 42.49219,5.18359 61.90625,15.41406 65.00391,34.22656 90.04687,114.97266 55.82031,179.98828 -28.875,54.86719 -93.17187,82.84375 -152.8789,66.53125 -2.27344,-0.625 -4.70313,-0.21094 -6.64454,1.125 l -41.77343,28.73438 0.0391,-50.71485 c 0,-2.35156 -1.03125,-4.58984 -2.83203,-6.11328 -10.19141,-8.6289 -18.79688,-18.60547 -25.7461,-29.48828 -3.99609,3.62891 -8.14062,7.09375 -12.42187,10.38281 7.0625,10.67578 15.4375,20.33985 24.99609,28.85547 l -0.0586,62.29297 c 0,2.97266 1.64844,5.70313 4.27734,7.08594 1.17188,0.62109 2.45313,0.92187 3.73047,0.92187 1.58985,0 3.17188,-0.47265 4.53516,-1.40625 l 51.3125,-35.29297 c 15.14062,3.73047 30.70703,5.03907 46.33203,3.90235 16.54687,-1.21094 32.69531,-5.14063 47.97656,-11.67188 15.42188,-6.58984 29.49219,-15.63672 41.83594,-26.88672 12.76562,-11.64453 23.35937,-25.375 31.48437,-40.80078 9.38672,-17.82812 14.9961,-36.96484 16.6836,-56.8789 1.6289,-19.22657 -0.45703,-38.36719 -6.19922,-56.87891"
         fill-opacity="1"
         fill-rule="nonzero"
         id="path4" />
    </g>
    <g
       clip-path="url(#0409596842)"
       id="g5"
       transform="translate(0,-25.5)">
      <path
         fill="#000000"
         d="m 247.04687,502.32031 c -1.79296,1.52344 -2.83203,3.76172 -2.83203,6.11328 l 0.0508,50.71485 -41.78515,-28.73438 C 201.13672,529.48437 199.55078,529 197.94922,529 c -0.70313,0 -1.41406,0.0977 -2.10938,0.28906 C 136.13281,545.60156 71.832031,517.625 42.957031,462.75781 8.730469,397.74219 33.777344,316.99609 98.777344,282.76953 c 31.492186,-16.58594 67.550776,-19.91016 101.539066,-9.36719 4.80859,1.49219 9.48828,3.23438 14.03906,5.21875 1.32031,-5.19531 2.85937,-10.34375 4.61719,-15.43359 -4.53516,-1.90625 -9.17188,-3.59766 -13.91016,-5.07031 -18.51172,-5.74219 -37.64453,-7.83203 -56.86719,-6.19922 -19.91797,1.6875 -39.05078,7.29687 -56.871091,16.68359 C 73.5,277.98828 58.042969,290.58594 45.390625,306.05469 33.164062,320.98828 24.054688,337.94531 18.3125,356.45703 c -5.742188,18.51172 -7.824219,37.65234 -6.199219,56.87891 1.6875,19.91406 7.300781,39.05078 16.6875,56.8789 8.117188,15.42578 18.710938,29.15625 31.484375,40.80078 12.335938,11.25 26.414063,20.29688 41.832034,26.88672 15.28906,6.53125 31.42578,10.46094 47.98047,11.67188 15.62109,1.13672 31.18359,-0.17188 46.32421,-3.90235 l 51.32032,35.29297 c 1.35937,0.9336 2.9414,1.40625 4.53515,1.40625 1.27344,0 2.55078,-0.30078 3.72657,-0.92187 2.6289,-1.38281 4.27343,-4.11328 4.27343,-7.08594 l -0.0508,-62.29297 c 9.55469,-8.51562 17.92578,-18.17969 24.99219,-28.85547 -4.28125,-3.28906 -8.42188,-6.7539 -12.42188,-10.38281 -6.94531,10.88281 -15.55859,20.85938 -25.75,29.48828"
         fill-opacity="1"
         fill-rule="nonzero"
         id="path5" />
    </g>
    <g
       clip-path="url(#7151a95e27)"
       id="g6"
       transform="translate(0,-25.5)">
      <path
         fill="#000000"
         d="m 435.16797,491.19531 -30.21094,57.51172 -30.21484,-57.51172 c -1.09375,-2.08203 -3.0586,-3.57812 -5.35547,-4.08984 -74.28125,-16.44531 -128.1875,-83.70313 -128.1875,-159.91016 0,-90.3164 73.45703,-163.78906 163.75781,-163.78906 90.28906,0 163.74609,73.47266 163.74609,163.78906 0,76.20703 -53.90625,143.46485 -128.1875,159.91016 -2.29687,0.51172 -4.25781,2.00781 -5.34765,4.08984 z m 64.77344,-11.33203 c 16.96484,-10.58203 31.97265,-23.82812 44.59765,-39.375 12.73438,-15.67578 22.66016,-33.21875 29.5,-52.13672 7.07813,-19.58203 10.67188,-40.15625 10.67188,-61.15625 0,-24.26953 -4.75391,-47.8164 -14.12891,-69.99219 -9.05469,-21.40625 -22.01562,-40.63671 -38.52344,-57.14453 -16.5039,-16.50781 -35.72656,-29.47265 -57.13281,-38.52734 -22.17187,-9.375 -45.71094,-14.13281 -69.96875,-14.13281 -24.26562,0 -47.80859,4.75781 -69.98047,14.13281 -21.40234,9.05469 -40.6289,22.01953 -57.13281,38.52734 -16.50391,16.50782 -29.46875,35.73828 -38.52344,57.14453 -9.36719,22.17579 -14.1289,45.72266 -14.1289,69.99219 0,21 3.59375,41.57422 10.67187,61.15625 6.83984,18.91797 16.76563,36.46094 29.50391,52.13672 12.6289,15.54688 27.63281,28.79297 44.59375,39.375 16.22265,10.11719 33.8125,17.51953 52.32031,22.02734 l 35.58984,67.7461 c 1.38282,2.63281 4.10938,4.28515 7.08594,4.28515 2.97266,0 5.69922,-1.65234 7.07813,-4.28515 l 35.58984,-67.7461 c 18.50781,-4.50781 36.09375,-11.91015 52.31641,-22.02734"
         fill-opacity="1"
         fill-rule="nonzero"
         id="path6" />
    </g>
    <path
       fill="#000000"
       d="m 475.53906,321.14844 -69.13672,70.44922 c -0.94922,0.9414 -1.73437,0.9414 -2.68359,0 l -69.13281,-70.44922 c -34.61328,-37.89453 14.84375,-93.61328 56.68359,-55.26563 l 13.79297,14.07422 13.79687,-14.07422 c 42.04297,-38.4375 91.09375,17.39844 56.67969,55.26563 z m 9.29688,-73.91406 c -22.78125,-19.15625 -57.97657,-16.28125 -79.77344,5.91406 -61.33984,-56.19531 -135.14844,24.98047 -83.95313,81.28906 l 69.13282,70.44922 c 7.76172,8.27344 21.88281,8.30859 29.63672,0.0352 l 69.13281,-70.44922 c 21.08984,-21.5625 25.5039,-62.24219 -4.17578,-87.23828"
       fill-opacity="1"
       fill-rule="nonzero"
       id="path7" />
    <path
       fill="#000000"
       d="m 684.17578,389.21484 6.40234,37.40235 -33.58593,-17.65235 -33.58594,17.65235 6.40625,-37.40235 -27.18359,-26.49218 37.55859,-5.45703 16.80469,-34.05469 16.80859,34.05469 37.55859,5.45703 z m 37.69141,-38.05859 -39.47657,-5.75781 -17.64453,-35.77735 c -3.16406,-6.3789 -12.32031,-6.46093 -15.50781,0 l -17.64844,35.77735 -39.47656,5.75781 c -7.07812,1.02734 -9.91406,9.76172 -4.78125,14.75781 l 28.5625,27.83594 -6.75781,39.32422 c -1.21485,7.10547 6.26953,12.4375 12.54297,9.10937 l 35.3125,-18.5664 35.3164,18.5664 c 6.26953,3.30079 13.75782,-2.0039 12.53907,-9.10937 L 698.08594,393.75 726.65625,365.91406 c 5.12891,-4.99609 2.28906,-13.73047 -4.78906,-14.75781"
       fill-opacity="1"
       fill-rule="nonzero"
       id="path8" />
    <path
       fill="#000000"
       d="m 116.13281,422.82422 c 0,3.58203 -2.90234,6.48828 -6.48828,6.48828 -8.59765,-0.34375 -8.59765,-12.63672 0,-12.97266 3.58594,0 6.48828,2.90235 6.48828,6.48438 z m 85.52735,-24.72266 c 3.39453,5.71094 0.33593,13.35157 -3.76954,15.5586 2.08204,13.18359 -4.75781,17.80859 -14.35156,17.80859 h -10.21484 c -19.35938,0 -31.89844,-10.22266 -46.37891,-10.22266 v -50.3125 h 2.94531 c 7.66797,0 18.375,-19.15625 25.55079,-26.33593 7.66015,-7.67188 5.10156,-20.44532 10.21484,-25.55469 12.76953,0 12.76953,8.91406 12.76953,15.33203 0,10.58984 -7.66016,15.32813 -7.66016,25.55078 h 28.10157 c 5.70312,0 10.19531,5.10938 10.21484,10.22266 0.0273,5.10937 -3.46484,10.21484 -6.01562,10.21484 3.64843,3.9375 4.42578,12.22656 -1.40625,17.73828 z m 16.6875,-14.54687 c 9.51562,-15.09375 -0.20313,-36.30078 -19.48047,-36.60156 h -9.85938 c 1.33203,-3.46094 2.38672,-7.60157 2.38672,-12.57813 0,-19.67187 -10.17578,-28.30469 -25.73828,-28.30469 -16.64844,0 -15.69922,25.65235 -19.39063,29.35157 -6.14843,6.14453 -13.40234,17.95703 -18.57812,22.54296 H 101 c -4.773438,0 -8.648438,3.8711 -8.648438,8.64454 v 64.85937 c 0,4.78125 3.875,8.65625 8.648438,8.65625 h 17.29688 c 4.01953,0 7.40234,-2.75781 8.36718,-6.47656 12.02735,0.26953 20.28516,10.79297 48.04297,10.79297 1.95703,0 4.11328,0.008 6.00391,0.008 20.84375,0 30.26172,-10.66016 30.52343,-25.76953 3.59766,-4.97656 5.48047,-11.64844 4.67969,-18.10156 2.66406,-4.98438 3.69141,-10.90625 2.4336,-17.02344"
       fill-opacity="1"
       fill-rule="nonzero"
       id="path9" />
  </g>
</svg>
