<svg xmlns="http://www.w3.org/2000/svg" xmlns:xlink="http://www.w3.org/1999/xlink" width="1080" zoomAndPan="magnify" viewBox="0 0 810 809.999993" height="1080" preserveAspectRatio="xMidYMid meet" version="1.0"><defs><clipPath id="45d8d0ecb1"><path d="M 231.09375 81 L 579.09375 81 L 579.09375 450 L 231.09375 450 Z M 231.09375 81 " clip-rule="nonzero"/></clipPath><clipPath id="908ff96911"><path d="M 317 645 L 493 645 L 493 714.75 L 317 714.75 Z M 317 645 " clip-rule="nonzero"/></clipPath></defs><g clip-path="url(#45d8d0ecb1)"><path fill="#37cc65" d="M 579.09375 321.8125 L 492.070312 201.421875 L 405.09375 81.03125 L 318.113281 201.421875 L 231.09375 321.8125 L 317.667969 321.8125 L 317.667969 449.679688 L 492.515625 449.679688 L 492.515625 321.8125 Z M 579.09375 321.8125 " fill-opacity="1" fill-rule="nonzero"/></g><path fill="#37aa65" d="M 317.667969 468.597656 L 492.515625 468.597656 L 492.515625 538.292969 L 317.667969 538.292969 Z M 317.667969 468.597656 " fill-opacity="1" fill-rule="nonzero"/><path fill="#226a3f" d="M 317.667969 556.808594 L 317.667969 626.503906 L 492.515625 626.503906 L 492.515625 556.808594 Z M 317.667969 556.808594 " fill-opacity="1" fill-rule="nonzero"/><g clip-path="url(#908ff96911)"><path fill="#1a502f" d="M 317.667969 645.019531 L 492.515625 645.019531 L 492.515625 714.71875 L 317.667969 714.71875 Z M 317.667969 645.019531 " fill-opacity="1" fill-rule="nonzero"/></g></svg>