<svg xmlns="http://www.w3.org/2000/svg" xmlns:xlink="http://www.w3.org/1999/xlink" width="1080" zoomAndPan="magnify" viewBox="0 0 810 809.999993" height="1080" preserveAspectRatio="xMidYMid meet" version="1.0"><defs><clipPath id="8ed8932ee2"><path d="M 61.265625 29.410156 L 794 29.410156 L 794 770 L 61.265625 770 Z M 61.265625 29.410156 " clip-rule="nonzero"/></clipPath></defs><g clip-path="url(#8ed8932ee2)"><path fill="#278d46" d="M 793.992188 395.8125 C 793.992188 598.105469 629.988281 762.101562 427.6875 762.101562 C 412.933594 762.121094 398.234375 761.253906 383.585938 759.492188 C 368.9375 757.730469 354.449219 755.089844 340.121094 751.570312 C 325.796875 748.050781 311.734375 743.675781 297.9375 738.449219 C 284.140625 733.222656 270.710938 727.183594 257.648438 720.324219 C 257.503906 720.386719 257.359375 720.449219 257.210938 720.511719 L 146.796875 766.390625 C 112.246094 780.75 77.398438 746.566406 91.09375 711.75 L 130.898438 610.542969 C 125.28125 602.800781 119.976562 594.851562 114.984375 586.691406 C 109.992188 578.53125 105.324219 570.1875 100.988281 561.660156 C 96.652344 553.132812 92.660156 544.449219 89.007812 535.605469 C 85.355469 526.765625 82.054688 517.792969 79.109375 508.691406 C 76.160156 499.589844 73.578125 490.386719 71.355469 481.085938 C 69.132812 471.78125 67.28125 462.402344 65.796875 452.953125 C 64.3125 443.5 63.203125 434.007812 62.464844 424.46875 C 61.730469 414.929688 61.371094 405.378906 61.382812 395.8125 C 61.382812 193.519531 225.386719 29.527344 427.6875 29.527344 C 629.988281 29.527344 793.992188 193.519531 793.992188 395.8125 Z M 793.992188 395.8125 " fill-opacity="1" fill-rule="nonzero"/></g><path fill="#ffffff" d="M 746.460938 395.8125 C 746.460938 401.03125 746.335938 406.242188 746.078125 411.453125 C 745.820312 416.664062 745.4375 421.867188 744.925781 427.058594 C 744.414062 432.25 743.777344 437.425781 743.011719 442.585938 C 742.246094 447.746094 741.355469 452.882812 740.335938 458 C 739.320312 463.117188 738.175781 468.207031 736.910156 473.265625 C 735.640625 478.324219 734.25 483.351562 732.734375 488.34375 C 731.222656 493.335938 729.585938 498.289062 727.828125 503.199219 C 726.070312 508.113281 724.191406 512.976562 722.195312 517.796875 C 720.199219 522.617188 718.085938 527.386719 715.855469 532.101562 C 713.625 536.816406 711.28125 541.476562 708.820312 546.074219 C 706.363281 550.675781 703.792969 555.214844 701.109375 559.6875 C 698.425781 564.164062 695.636719 568.570312 692.738281 572.90625 C 689.839844 577.246094 686.835938 581.507812 683.730469 585.699219 C 680.621094 589.890625 677.414062 594 674.101562 598.03125 C 670.792969 602.066406 667.386719 606.015625 663.882812 609.878906 C 660.378906 613.746094 656.785156 617.523438 653.09375 621.210938 C 649.40625 624.898438 645.628906 628.496094 641.761719 632 C 637.898438 635.503906 633.949219 638.910156 629.914062 642.21875 C 625.882812 645.527344 621.773438 648.738281 617.582031 651.84375 C 613.390625 654.953125 609.125 657.953125 604.789062 660.851562 C 600.453125 663.75 596.046875 666.542969 591.570312 669.222656 C 587.09375 671.90625 582.558594 674.476562 577.957031 676.933594 C 573.355469 679.394531 568.695312 681.738281 563.980469 683.96875 C 559.265625 686.199219 554.496094 688.3125 549.675781 690.308594 C 544.855469 692.304688 539.992188 694.183594 535.078125 695.941406 C 530.167969 697.699219 525.214844 699.335938 520.222656 700.847656 C 515.230469 702.363281 510.203125 703.753906 505.144531 705.019531 C 500.082031 706.289062 494.992188 707.429688 489.878906 708.449219 C 484.761719 709.46875 479.621094 710.359375 474.460938 711.125 C 469.300781 711.890625 464.125 712.527344 458.933594 713.039062 C 453.742188 713.550781 448.539062 713.933594 443.328125 714.191406 C 438.117188 714.445312 432.90625 714.574219 427.6875 714.574219 C 422.46875 714.574219 417.257812 714.445312 412.046875 714.191406 C 406.835938 713.933594 401.632812 713.550781 396.441406 713.039062 C 391.25 712.527344 386.074219 711.890625 380.914062 711.125 C 375.753906 710.359375 370.613281 709.46875 365.496094 708.449219 C 360.378906 707.429688 355.292969 706.289062 350.230469 705.019531 C 345.171875 703.753906 340.144531 702.363281 335.152344 700.847656 C 330.160156 699.335938 325.207031 697.699219 320.296875 695.941406 C 315.382812 694.183594 310.515625 692.304688 305.699219 690.308594 C 300.878906 688.3125 296.109375 686.199219 291.394531 683.96875 C 286.675781 681.738281 282.019531 679.394531 277.417969 676.933594 C 272.816406 674.476562 268.277344 671.90625 263.804688 669.222656 C 259.328125 666.542969 254.921875 663.75 250.585938 660.851562 C 246.246094 657.953125 241.984375 654.953125 237.792969 651.84375 C 233.601562 648.738281 229.492188 645.527344 225.457031 642.21875 C 221.425781 638.910156 217.476562 635.503906 213.609375 632 C 209.746094 628.496094 205.96875 624.898438 202.28125 621.210938 C 198.589844 617.523438 194.996094 613.746094 191.492188 609.878906 C 187.988281 606.015625 184.582031 602.066406 181.269531 598.03125 C 177.960938 594 174.753906 589.890625 171.644531 585.699219 C 168.539062 581.507812 165.535156 577.246094 162.636719 572.90625 C 159.738281 568.570312 156.945312 564.164062 154.265625 559.6875 C 151.582031 555.214844 149.011719 550.675781 146.554688 546.074219 C 144.09375 541.476562 141.75 536.816406 139.519531 532.101562 C 137.289062 527.386719 135.175781 522.617188 133.179688 517.796875 C 131.179688 512.976562 129.304688 508.113281 127.546875 503.199219 C 125.789062 498.289062 124.152344 493.335938 122.640625 488.34375 C 121.125 483.351562 119.734375 478.324219 118.464844 473.265625 C 117.199219 468.207031 116.054688 463.117188 115.039062 458 C 114.019531 452.882812 113.128906 447.746094 112.363281 442.585938 C 111.597656 437.425781 110.957031 432.25 110.449219 427.058594 C 109.9375 421.867188 109.550781 416.664062 109.296875 411.453125 C 109.039062 406.242188 108.914062 401.03125 108.914062 395.8125 C 108.914062 390.597656 109.039062 385.382812 109.296875 380.171875 C 109.550781 374.960938 109.9375 369.761719 110.449219 364.570312 C 110.957031 359.378906 111.597656 354.203125 112.363281 349.042969 C 113.128906 343.878906 114.019531 338.742188 115.039062 333.625 C 116.054688 328.507812 117.199219 323.421875 118.464844 318.359375 C 119.734375 313.300781 121.125 308.273438 122.640625 303.28125 C 124.152344 298.289062 125.789062 293.335938 127.546875 288.425781 C 129.304688 283.515625 131.179688 278.648438 133.179688 273.828125 C 135.175781 269.007812 137.289062 264.242188 139.519531 259.523438 C 141.75 254.808594 144.09375 250.152344 146.554688 245.550781 C 149.011719 240.949219 151.582031 236.410156 154.265625 231.9375 C 156.945312 227.460938 159.738281 223.054688 162.636719 218.71875 C 165.535156 214.382812 168.539062 210.117188 171.644531 205.925781 C 174.753906 201.738281 177.960938 197.625 181.269531 193.59375 C 184.582031 189.558594 187.988281 185.613281 191.492188 181.746094 C 194.996094 177.878906 198.589844 174.105469 202.28125 170.414062 C 205.96875 166.726562 209.746094 163.128906 213.609375 159.625 C 217.476562 156.125 221.425781 152.71875 225.457031 149.40625 C 229.492188 146.097656 233.601562 142.890625 237.792969 139.78125 C 241.984375 136.675781 246.246094 133.671875 250.585938 130.773438 C 254.921875 127.875 259.328125 125.085938 263.804688 122.402344 C 268.277344 119.71875 272.816406 117.148438 277.417969 114.691406 C 282.019531 112.230469 286.675781 109.886719 291.394531 107.65625 C 296.109375 105.425781 300.878906 103.3125 305.699219 101.316406 C 310.515625 99.320312 315.382812 97.441406 320.296875 95.683594 C 325.207031 93.929688 330.160156 92.292969 335.152344 90.777344 C 340.144531 89.261719 345.171875 87.871094 350.230469 86.605469 C 355.292969 85.335938 360.378906 84.195312 365.496094 83.175781 C 370.613281 82.160156 375.753906 81.265625 380.914062 80.503906 C 386.074219 79.738281 391.25 79.097656 396.441406 78.585938 C 401.632812 78.074219 406.835938 77.691406 412.046875 77.4375 C 417.257812 77.179688 422.46875 77.050781 427.6875 77.050781 C 432.90625 77.050781 438.117188 77.179688 443.328125 77.4375 C 448.539062 77.691406 453.742188 78.074219 458.933594 78.585938 C 464.125 79.097656 469.300781 79.738281 474.460938 80.503906 C 479.621094 81.265625 484.761719 82.160156 489.878906 83.175781 C 494.992188 84.195312 500.082031 85.335938 505.144531 86.605469 C 510.203125 87.871094 515.230469 89.261719 520.222656 90.777344 C 525.214844 92.292969 530.167969 93.929688 535.078125 95.683594 C 539.992188 97.441406 544.855469 99.320312 549.675781 101.316406 C 554.496094 103.3125 559.265625 105.425781 563.980469 107.65625 C 568.695312 109.886719 573.355469 112.230469 577.957031 114.691406 C 582.558594 117.148438 587.09375 119.71875 591.570312 122.402344 C 596.046875 125.085938 600.453125 127.875 604.789062 130.773438 C 609.125 133.671875 613.390625 136.675781 617.582031 139.78125 C 621.773438 142.890625 625.882812 146.097656 629.914062 149.40625 C 633.949219 152.71875 637.898438 156.125 641.761719 159.625 C 645.628906 163.128906 649.40625 166.726562 653.09375 170.414062 C 656.785156 174.105469 660.378906 177.878906 663.882812 181.746094 C 667.386719 185.613281 670.792969 189.558594 674.105469 193.59375 C 677.414062 197.625 680.621094 201.738281 683.730469 205.925781 C 686.835938 210.117188 689.839844 214.382812 692.738281 218.71875 C 695.636719 223.054688 698.425781 227.460938 701.109375 231.9375 C 703.792969 236.410156 706.363281 240.949219 708.820312 245.550781 C 711.28125 250.152344 713.625 254.808594 715.855469 259.523438 C 718.085938 264.242188 720.199219 269.007812 722.195312 273.828125 C 724.191406 278.648438 726.070312 283.515625 727.828125 288.425781 C 729.585938 293.335938 731.222656 298.289062 732.734375 303.28125 C 734.25 308.273438 735.640625 313.300781 736.910156 318.359375 C 738.175781 323.421875 739.320312 328.507812 740.335938 333.625 C 741.355469 338.742188 742.246094 343.878906 743.011719 349.042969 C 743.777344 354.203125 744.414062 359.378906 744.925781 364.570312 C 745.4375 369.761719 745.820312 374.960938 746.078125 380.171875 C 746.335938 385.382812 746.460938 390.597656 746.460938 395.8125 Z M 746.460938 395.8125 " fill-opacity="1" fill-rule="nonzero"/><path fill="#278d46" d="M 701.8125 395.8125 C 701.8125 400.300781 701.703125 404.78125 701.484375 409.261719 C 701.265625 413.742188 700.933594 418.214844 700.496094 422.679688 C 700.054688 427.144531 699.503906 431.597656 698.847656 436.035156 C 698.1875 440.472656 697.421875 444.890625 696.546875 449.289062 C 695.671875 453.691406 694.6875 458.066406 693.597656 462.417969 C 692.507812 466.769531 691.3125 471.089844 690.011719 475.382812 C 688.707031 479.675781 687.300781 483.9375 685.789062 488.160156 C 684.277344 492.382812 682.664062 496.566406 680.949219 500.710938 C 679.230469 504.855469 677.414062 508.957031 675.496094 513.011719 C 673.578125 517.066406 671.5625 521.074219 669.445312 525.03125 C 667.332031 528.988281 665.121094 532.886719 662.8125 536.738281 C 660.507812 540.585938 658.109375 544.375 655.617188 548.101562 C 653.125 551.832031 650.539062 555.5 647.867188 559.101562 C 645.195312 562.707031 642.4375 566.242188 639.589844 569.710938 C 636.746094 573.179688 633.816406 576.574219 630.800781 579.898438 C 627.789062 583.222656 624.695312 586.46875 621.523438 589.640625 C 618.351562 592.8125 615.105469 595.90625 611.78125 598.917969 C 608.457031 601.933594 605.058594 604.859375 601.589844 607.707031 C 598.125 610.554688 594.589844 613.3125 590.984375 615.984375 C 587.382812 618.65625 583.714844 621.238281 579.984375 623.730469 C 576.253906 626.222656 572.464844 628.625 568.617188 630.929688 C 564.769531 633.234375 560.867188 635.445312 556.910156 637.5625 C 552.953125 639.675781 548.945312 641.691406 544.890625 643.609375 C 540.835938 645.527344 536.734375 647.347656 532.589844 649.0625 C 528.445312 650.777344 524.261719 652.394531 520.039062 653.90625 C 515.8125 655.414062 511.554688 656.824219 507.261719 658.125 C 502.96875 659.425781 498.648438 660.625 494.292969 661.714844 C 489.941406 662.804688 485.566406 663.785156 481.167969 664.660156 C 476.765625 665.535156 472.347656 666.304688 467.910156 666.960938 C 463.472656 667.621094 459.019531 668.167969 454.554688 668.609375 C 450.09375 669.046875 445.617188 669.378906 441.136719 669.597656 C 436.65625 669.816406 432.171875 669.929688 427.6875 669.929688 C 423.199219 669.929688 418.71875 669.816406 414.238281 669.597656 C 409.753906 669.378906 405.28125 669.046875 400.816406 668.609375 C 396.355469 668.167969 391.902344 667.621094 387.464844 666.960938 C 383.027344 666.304688 378.609375 665.535156 374.207031 664.660156 C 369.808594 663.785156 365.433594 662.804688 361.078125 661.714844 C 356.726562 660.625 352.40625 659.425781 348.113281 658.125 C 343.820312 656.824219 339.5625 655.414062 335.335938 653.90625 C 331.113281 652.394531 326.929688 650.777344 322.785156 649.0625 C 318.636719 647.347656 314.539062 645.527344 310.484375 643.609375 C 306.425781 641.691406 302.421875 639.675781 298.464844 637.5625 C 294.507812 635.445312 290.605469 633.234375 286.757812 630.929688 C 282.910156 628.625 279.121094 626.222656 275.390625 623.730469 C 271.660156 621.238281 267.992188 618.65625 264.390625 615.984375 C 260.785156 613.3125 257.25 610.554688 253.78125 607.707031 C 250.316406 604.859375 246.917969 601.933594 243.59375 598.917969 C 240.269531 595.90625 237.023438 592.8125 233.851562 589.640625 C 230.679688 586.46875 227.585938 583.222656 224.574219 579.898438 C 221.558594 576.574219 218.628906 573.175781 215.785156 569.710938 C 212.9375 566.242188 210.179688 562.707031 207.507812 559.101562 C 204.832031 555.5 202.25 551.832031 199.757812 548.101562 C 197.265625 544.375 194.867188 540.585938 192.5625 536.738281 C 190.253906 532.886719 188.042969 528.988281 185.929688 525.03125 C 183.8125 521.074219 181.796875 517.066406 179.878906 513.011719 C 177.960938 508.957031 176.144531 504.855469 174.425781 500.710938 C 172.710938 496.566406 171.097656 492.382812 169.585938 488.160156 C 168.074219 483.9375 166.667969 479.675781 165.363281 475.382812 C 164.0625 471.089844 162.867188 466.769531 161.777344 462.417969 C 160.683594 458.066406 159.703125 453.691406 158.828125 449.289062 C 157.953125 444.890625 157.183594 440.472656 156.527344 436.035156 C 155.867188 431.597656 155.320312 427.144531 154.878906 422.679688 C 154.441406 418.214844 154.109375 413.742188 153.890625 409.261719 C 153.671875 404.78125 153.558594 400.300781 153.558594 395.8125 C 153.558594 391.328125 153.671875 386.84375 153.890625 382.363281 C 154.109375 377.882812 154.441406 373.410156 154.878906 368.945312 C 155.320312 364.480469 155.867188 360.03125 156.527344 355.59375 C 157.183594 351.15625 157.953125 346.734375 158.828125 342.335938 C 159.703125 337.9375 160.683594 333.558594 161.777344 329.207031 C 162.867188 324.855469 164.0625 320.535156 165.363281 316.242188 C 166.667969 311.949219 168.074219 307.691406 169.585938 303.464844 C 171.097656 299.242188 172.710938 295.058594 174.425781 290.914062 C 176.144531 286.769531 177.960938 282.667969 179.878906 278.613281 C 181.796875 274.558594 183.8125 270.550781 185.929688 266.597656 C 188.042969 262.640625 190.253906 258.738281 192.5625 254.890625 C 194.867188 251.042969 197.265625 247.253906 199.757812 243.523438 C 202.25 239.792969 204.832031 236.125 207.507812 232.523438 C 210.179688 228.917969 212.9375 225.382812 215.785156 221.917969 C 218.628906 218.449219 221.558594 215.050781 224.574219 211.726562 C 227.585938 208.40625 230.679688 205.15625 233.851562 201.984375 C 237.023438 198.8125 240.269531 195.71875 243.59375 192.707031 C 246.917969 189.695312 250.316406 186.765625 253.78125 183.917969 C 257.25 181.074219 260.785156 178.3125 264.390625 175.640625 C 267.992188 172.96875 271.660156 170.386719 275.390625 167.894531 C 279.121094 165.402344 282.910156 163.003906 286.757812 160.695312 C 290.605469 158.390625 294.507812 156.179688 298.464844 154.066406 C 302.421875 151.949219 306.425781 149.933594 310.484375 148.015625 C 314.539062 146.097656 318.636719 144.28125 322.785156 142.5625 C 326.929688 140.847656 331.113281 139.234375 335.335938 137.722656 C 339.5625 136.210938 343.820312 134.804688 348.113281 133.5 C 352.40625 132.199219 356.726562 131.003906 361.078125 129.914062 C 365.433594 128.824219 369.808594 127.839844 374.207031 126.964844 C 378.609375 126.089844 383.027344 125.324219 387.464844 124.664062 C 391.902344 124.007812 396.355469 123.457031 400.816406 123.019531 C 405.28125 122.578125 409.753906 122.246094 414.238281 122.027344 C 418.71875 121.808594 423.199219 121.699219 427.6875 121.699219 C 432.171875 121.699219 436.65625 121.808594 441.136719 122.027344 C 445.617188 122.246094 450.09375 122.578125 454.554688 123.019531 C 459.019531 123.457031 463.472656 124.007812 467.910156 124.664062 C 472.347656 125.324219 476.765625 126.089844 481.167969 126.964844 C 485.566406 127.839844 489.941406 128.824219 494.292969 129.914062 C 498.648438 131.003906 502.96875 132.199219 507.261719 133.5 C 511.554688 134.804688 515.8125 136.210938 520.039062 137.722656 C 524.261719 139.234375 528.445312 140.847656 532.589844 142.5625 C 536.734375 144.28125 540.835938 146.097656 544.890625 148.015625 C 548.945312 149.933594 552.953125 151.949219 556.910156 154.066406 C 560.867188 156.179688 564.769531 158.390625 568.617188 160.695312 C 572.464844 163.003906 576.253906 165.402344 579.984375 167.894531 C 583.714844 170.386719 587.382812 172.96875 590.984375 175.640625 C 594.589844 178.3125 598.125 181.074219 601.589844 183.917969 C 605.058594 186.765625 608.457031 189.695312 611.78125 192.707031 C 615.105469 195.71875 618.351562 198.8125 621.523438 201.984375 C 624.695312 205.15625 627.789062 208.40625 630.800781 211.726562 C 633.816406 215.050781 636.746094 218.449219 639.589844 221.917969 C 642.4375 225.382812 645.195312 228.917969 647.867188 232.523438 C 650.539062 236.125 653.125 239.792969 655.617188 243.523438 C 658.109375 247.253906 660.507812 251.042969 662.8125 254.890625 C 665.121094 258.738281 667.332031 262.640625 669.445312 266.597656 C 671.5625 270.550781 673.578125 274.558594 675.496094 278.613281 C 677.414062 282.667969 679.230469 286.769531 680.949219 290.914062 C 682.664062 295.058594 684.277344 299.242188 685.789062 303.464844 C 687.300781 307.691406 688.707031 311.949219 690.011719 316.242188 C 691.3125 320.535156 692.507812 324.855469 693.597656 329.207031 C 694.6875 333.558594 695.671875 337.9375 696.546875 342.335938 C 697.421875 346.734375 698.1875 351.15625 698.847656 355.59375 C 699.503906 360.03125 700.054688 364.480469 700.496094 368.945312 C 700.933594 373.410156 701.265625 377.882812 701.484375 382.363281 C 701.703125 386.84375 701.8125 391.328125 701.8125 395.8125 Z M 701.8125 395.8125 " fill-opacity="1" fill-rule="nonzero"/><path fill="#ffffff" d="M 392.488281 306.269531 L 381.820312 261.230469 C 381.515625 259.949219 381.144531 258.683594 380.707031 257.441406 C 380.273438 256.199219 379.769531 254.980469 379.207031 253.789062 C 378.640625 252.601562 378.015625 251.441406 377.328125 250.316406 C 376.640625 249.195312 375.898438 248.109375 375.097656 247.0625 C 374.296875 246.015625 373.441406 245.015625 372.535156 244.058594 C 371.628906 243.101562 370.671875 242.195312 369.671875 241.339844 C 368.667969 240.484375 367.625 239.683594 366.539062 238.9375 C 365.453125 238.191406 364.328125 237.503906 363.171875 236.878906 C 362.011719 236.25 360.824219 235.683594 359.605469 235.183594 C 358.386719 234.679688 357.144531 234.242188 355.878906 233.871094 C 354.617188 233.5 353.335938 233.195312 352.039062 232.960938 C 350.742188 232.722656 349.4375 232.554688 348.125 232.457031 C 346.808594 232.355469 345.492188 232.328125 344.175781 232.367188 C 342.859375 232.40625 341.546875 232.515625 340.242188 232.691406 C 338.9375 232.871094 337.644531 233.113281 336.363281 233.429688 C 335.082031 233.742188 333.824219 234.121094 332.582031 234.570312 L 307.980469 243.425781 C 306.988281 243.785156 306.011719 244.183594 305.054688 244.625 C 304.09375 245.0625 303.15625 245.542969 302.234375 246.0625 C 301.316406 246.582031 300.421875 247.140625 299.550781 247.734375 C 298.675781 248.332031 297.832031 248.960938 297.011719 249.628906 C 296.195312 250.292969 295.40625 250.992188 294.644531 251.726562 C 293.886719 252.457031 293.160156 253.222656 292.464844 254.015625 C 291.769531 254.8125 291.105469 255.632812 290.480469 256.484375 C 289.855469 257.332031 289.265625 258.207031 288.714844 259.105469 C 288.160156 260.007812 287.648438 260.929688 287.171875 261.871094 C 286.699219 262.8125 286.265625 263.773438 285.871094 264.753906 C 285.476562 265.734375 285.125 266.726562 284.816406 267.738281 C 284.507812 268.746094 284.238281 269.765625 284.015625 270.796875 C 283.792969 271.828125 283.613281 272.871094 283.476562 273.917969 C 283.339844 274.960938 283.25 276.011719 283.199219 277.066406 C 283.152344 278.121094 283.152344 279.175781 283.191406 280.230469 C 283.234375 281.285156 283.320312 282.335938 283.449219 283.386719 C 292.023438 353.046875 331.488281 521.5625 512.992188 558.589844 C 514.785156 558.953125 516.59375 559.1875 518.417969 559.289062 C 520.242188 559.390625 522.066406 559.359375 523.886719 559.195312 C 525.710938 559.03125 527.507812 558.734375 529.285156 558.304688 C 531.0625 557.878906 532.800781 557.324219 534.5 556.644531 C 536.195312 555.960938 537.832031 555.160156 539.414062 554.242188 C 540.992188 553.320312 542.496094 552.289062 543.925781 551.148438 C 545.355469 550.011719 546.695312 548.773438 547.945312 547.4375 C 549.191406 546.101562 550.335938 544.679688 551.378906 543.179688 L 565.5 522.777344 C 566.199219 521.769531 566.847656 520.726562 567.445312 519.652344 C 568.042969 518.578125 568.585938 517.476562 569.074219 516.347656 C 569.5625 515.21875 569.996094 514.070312 570.371094 512.902344 C 570.746094 511.730469 571.066406 510.542969 571.324219 509.34375 C 571.585938 508.140625 571.785156 506.929688 571.925781 505.710938 C 572.066406 504.488281 572.144531 503.261719 572.167969 502.035156 C 572.1875 500.804688 572.148438 499.578125 572.046875 498.351562 C 571.945312 497.128906 571.785156 495.910156 571.566406 494.703125 C 571.347656 493.492188 571.066406 492.296875 570.730469 491.113281 C 570.394531 489.933594 570 488.769531 569.546875 487.625 C 569.09375 486.484375 568.589844 485.363281 568.027344 484.273438 C 567.464844 483.179688 566.851562 482.113281 566.1875 481.082031 C 565.519531 480.046875 564.804688 479.050781 564.042969 478.085938 C 563.277344 477.125 562.46875 476.203125 561.613281 475.316406 C 560.757812 474.433594 559.863281 473.59375 558.925781 472.800781 C 557.988281 472.003906 557.015625 471.257812 556.003906 470.558594 L 555.761719 470.390625 L 524.730469 449.265625 C 523.0625 448.128906 521.3125 447.132812 519.484375 446.28125 C 517.65625 445.425781 515.769531 444.722656 513.824219 444.175781 C 511.882812 443.625 509.910156 443.234375 507.902344 443.003906 C 505.898438 442.773438 503.886719 442.703125 501.871094 442.796875 C 499.851562 442.890625 497.855469 443.144531 495.882812 443.5625 C 493.90625 443.976562 491.976562 444.546875 490.09375 445.277344 C 488.207031 446.003906 486.394531 446.875 484.652344 447.894531 C 482.910156 448.914062 481.261719 450.066406 479.703125 451.351562 C 478.160156 452.632812 476.519531 453.78125 474.792969 454.796875 C 473.0625 455.816406 471.261719 456.6875 469.390625 457.414062 C 467.519531 458.144531 465.605469 458.714844 463.640625 459.136719 C 461.679688 459.554688 459.695312 459.816406 457.691406 459.917969 C 455.6875 460.019531 453.6875 459.957031 451.691406 459.738281 C 449.699219 459.519531 447.734375 459.140625 445.800781 458.605469 C 443.867188 458.066406 441.988281 457.382812 440.164062 456.542969 C 438.339844 455.707031 436.59375 454.726562 434.929688 453.609375 C 416.050781 440.890625 390.5 419.804688 373.90625 390.566406 C 372.976562 388.9375 372.171875 387.246094 371.492188 385.496094 C 370.816406 383.746094 370.273438 381.957031 369.863281 380.125 C 369.453125 378.292969 369.183594 376.441406 369.050781 374.570312 C 368.917969 372.699219 368.925781 370.828125 369.074219 368.957031 C 369.21875 367.085938 369.507812 365.234375 369.929688 363.410156 C 370.355469 361.582031 370.910156 359.792969 371.601562 358.050781 C 372.292969 356.304688 373.109375 354.621094 374.054688 353 C 374.996094 351.375 376.054688 349.832031 377.226562 348.367188 L 385.214844 338.445312 C 387.003906 336.214844 388.523438 333.816406 389.765625 331.242188 C 391.007812 328.667969 391.945312 325.988281 392.574219 323.199219 C 393.207031 320.410156 393.515625 317.585938 393.5 314.726562 C 393.484375 311.871094 393.148438 309.050781 392.488281 306.269531 Z M 392.488281 306.269531 " fill-opacity="1" fill-rule="nonzero"/></svg>