<svg xmlns="http://www.w3.org/2000/svg" xmlns:xlink="http://www.w3.org/1999/xlink" width="1080" zoomAndPan="magnify" viewBox="0 0 810 809.999993" height="1080" preserveAspectRatio="xMidYMid meet" version="1.0"><defs><clipPath id="164fbd3c6c"><path d="M 60 50 L 749 50 L 749 760.4375 L 60 760.4375 Z M 60 50 " clip-rule="nonzero"/></clipPath></defs><g clip-path="url(#164fbd3c6c)"><path fill="#231f20" d="M 60.628906 338.253906 L 60.628906 753.023438 C 60.628906 753.519531 60.675781 754.007812 60.773438 754.492188 C 60.867188 754.976562 61.011719 755.449219 61.199219 755.90625 C 61.390625 756.363281 61.621094 756.796875 61.898438 757.207031 C 62.171875 757.617188 62.484375 758 62.832031 758.347656 C 63.183594 758.699219 63.5625 759.011719 63.972656 759.285156 C 64.386719 759.558594 64.820312 759.792969 65.277344 759.980469 C 65.734375 760.167969 66.203125 760.3125 66.6875 760.410156 C 67.171875 760.503906 67.664062 760.554688 68.15625 760.554688 L 712.035156 760.554688 C 712.527344 760.554688 713.019531 760.503906 713.503906 760.410156 C 713.988281 760.3125 714.460938 760.167969 714.917969 759.980469 C 715.375 759.792969 715.808594 759.558594 716.21875 759.285156 C 716.628906 759.011719 717.011719 758.699219 717.359375 758.347656 C 717.710938 758 718.019531 757.617188 718.296875 757.207031 C 718.570312 756.796875 718.800781 756.363281 718.992188 755.90625 C 719.179688 755.449219 719.324219 754.976562 719.421875 754.492188 C 719.515625 754.007812 719.566406 753.519531 719.566406 753.023438 L 719.566406 338.253906 C 719.550781 336.890625 719.195312 335.625 718.5 334.453125 L 718.925781 334.097656 L 719.28125 333.8125 C 719.523438 333.613281 719.734375 333.390625 719.921875 333.136719 L 720.238281 332.78125 L 720.773438 331.964844 C 720.855469 331.859375 720.914062 331.738281 720.949219 331.609375 C 721.171875 331.203125 721.347656 330.777344 721.484375 330.332031 L 748.125 237.695312 C 748.257812 237.21875 748.347656 236.738281 748.386719 236.246094 C 748.429688 235.753906 748.421875 235.261719 748.367188 234.769531 C 748.308594 234.28125 748.207031 233.800781 748.054688 233.328125 C 747.90625 232.859375 747.710938 232.410156 747.472656 231.976562 C 747.234375 231.542969 746.953125 231.140625 746.636719 230.761719 C 746.316406 230.386719 745.964844 230.042969 745.578125 229.734375 C 745.191406 229.425781 744.78125 229.160156 744.34375 228.933594 C 743.902344 228.707031 743.445312 228.523438 742.972656 228.386719 L 691.753906 213.539062 L 633.890625 196.917969 L 583.097656 182.316406 L 509.535156 161.007812 L 466.304688 148.574219 L 409.648438 132.554688 L 379.992188 123.992188 L 299.609375 100.90625 L 292.007812 98.703125 L 186.6875 68.441406 L 130.851562 52.347656 L 124.136719 50.429688 C 123.664062 50.296875 123.179688 50.207031 122.6875 50.167969 C 122.195312 50.125 121.703125 50.132812 121.214844 50.1875 C 120.722656 50.246094 120.242188 50.347656 119.773438 50.5 C 119.304688 50.648438 118.851562 50.84375 118.417969 51.082031 C 117.988281 51.320312 117.582031 51.601562 117.207031 51.917969 C 116.828125 52.238281 116.488281 52.589844 116.179688 52.976562 C 115.871094 53.363281 115.605469 53.773438 115.378906 54.210938 C 115.148438 54.652344 114.96875 55.109375 114.832031 55.582031 L 88.226562 148.21875 C 87.964844 149.1875 87.90625 150.167969 88.046875 151.164062 C 88.1875 152.15625 88.519531 153.082031 89.042969 153.9375 C 89.527344 154.800781 90.15625 155.539062 90.929688 156.15625 C 91.707031 156.769531 92.570312 157.214844 93.519531 157.488281 L 136.179688 169.851562 L 192.050781 185.90625 L 249.132812 202.316406 L 254.53125 203.878906 L 486.054688 270.375 L 527.472656 282.308594 L 583.378906 298.363281 L 601.496094 303.585938 L 695.625 330.757812 L 68.15625 330.757812 C 67.664062 330.757812 67.175781 330.804688 66.691406 330.902344 C 66.210938 330.996094 65.738281 331.140625 65.285156 331.328125 C 64.828125 331.515625 64.394531 331.746094 63.984375 332.019531 C 63.574219 332.292969 63.195312 332.601562 62.84375 332.949219 C 62.496094 333.296875 62.183594 333.675781 61.910156 334.085938 C 61.632812 334.496094 61.402344 334.925781 61.210938 335.382812 C 61.019531 335.835938 60.875 336.304688 60.777344 336.789062 C 60.679688 337.273438 60.628906 337.757812 60.628906 338.253906 Z M 175.960938 427.054688 L 144.242188 345.746094 L 187.46875 345.746094 L 219.191406 427.125 Z M 293.425781 427.054688 L 261.707031 345.746094 L 302.164062 345.746094 L 333.886719 427.125 Z M 407.945312 427.054688 L 376.226562 345.746094 L 419.027344 345.746094 L 450.746094 427.125 Z M 524.984375 427.054688 L 493.265625 345.746094 L 535.285156 345.746094 L 567.003906 427.125 Z M 641.277344 427.054688 L 609.558594 345.675781 L 653.605469 345.675781 L 685.324219 427.054688 Z M 193.117188 85.917969 L 234.675781 97.886719 L 242.667969 184.804688 L 201.109375 172.871094 Z M 306.039062 118.382812 L 344.789062 129.5 L 352.78125 216.453125 L 314.03125 205.335938 Z M 416.152344 150.03125 L 457.28125 161.859375 L 465.273438 248.8125 L 424.070312 236.984375 Z M 528.609375 182.390625 L 569.03125 194.003906 L 576.949219 281.03125 L 536.601562 269.34375 Z M 640.390625 214.359375 L 682.730469 226.542969 L 690.722656 313.496094 L 648.382812 301.3125 Z M 101.722656 427.125 L 75.652344 427.125 L 75.652344 360.3125 Z M 123.035156 80.980469 L 129.609375 152.339844 L 104.742188 145.234375 Z M 75.652344 745.527344 L 75.652344 442.148438 L 704.363281 442.148438 L 704.363281 745.527344 Z M 75.652344 745.527344 " fill-opacity="1" fill-rule="nonzero"/></g></svg>