<svg xmlns="http://www.w3.org/2000/svg" xmlns:xlink="http://www.w3.org/1999/xlink" width="1080" zoomAndPan="magnify" viewBox="0 0 810 809.999993" height="1080" preserveAspectRatio="xMidYMid meet" version="1.0"><defs><clipPath id="e21583428e"><path d="M 32.375 117 L 777.875 117 L 777.875 641.25 L 32.375 641.25 Z M 32.375 117 " clip-rule="nonzero"/></clipPath></defs><g clip-path="url(#e21583428e)"><path fill="#000000" d="M 140.847656 168.535156 L 669.382812 168.535156 L 669.382812 502.632812 L 140.847656 502.632812 Z M 123.4375 520.039062 L 686.785156 520.039062 L 686.785156 151.128906 L 123.4375 151.128906 Z M 750.621094 623.730469 C 743.375 623.796875 536.90625 623.84375 356.140625 623.84375 C 177.652344 623.84375 66.800781 623.796875 59.613281 623.734375 C 55.503906 623.691406 53.117188 616.265625 51.734375 613.386719 L 756.253906 613.386719 C 754.449219 616.480469 752.402344 623.710938 750.621094 623.730469 Z M 99.59375 554.339844 L 710.632812 554.339844 L 749.183594 595.980469 L 61.042969 595.980469 Z M 104.492188 144.777344 C 104.492188 139.058594 109.167969 134.410156 114.910156 134.410156 L 695.347656 134.410156 C 701.074219 134.410156 705.730469 139.058594 705.730469 144.777344 L 705.730469 536.753906 L 104.492188 536.753906 Z M 775.070312 598.324219 L 723.140625 542.222656 L 723.140625 144.777344 C 723.140625 129.460938 710.671875 117 695.351562 117 L 114.910156 117 C 99.566406 117 87.085938 129.460938 87.085938 144.777344 L 87.085938 542.222656 L 34.738281 598.769531 C 33.273438 600.351562 32.421875 602.550781 32.421875 604.699219 C 32.441406 615.5 38.121094 640.925781 59.441406 641.136719 C 66.679688 641.210938 177.601562 641.25 356.140625 641.25 C 536.949219 641.25 743.484375 641.203125 750.78125 641.140625 C 768.796875 640.972656 775.996094 612.65625 777.371094 607.480469 C 777.667969 606.601562 777.835938 605.664062 777.835938 604.683594 C 777.835938 602.171875 776.773438 599.90625 775.070312 598.324219 " fill-opacity="1" fill-rule="nonzero"/></g></svg>