<svg xmlns="http://www.w3.org/2000/svg" xmlns:xlink="http://www.w3.org/1999/xlink" width="1080" zoomAndPan="magnify" viewBox="0 0 810 809.999993" height="1080" preserveAspectRatio="xMidYMid meet" version="1.0"><defs><clipPath id="ef5711a53d"><path d="M 81 179.53125 L 745.5 179.53125 L 745.5 588 L 81 588 Z M 81 179.53125 " clip-rule="nonzero"/></clipPath><clipPath id="39e3e53c23"><path d="M 81 179.53125 L 745.5 179.53125 L 745.5 588 L 81 588 Z M 81 179.53125 " clip-rule="nonzero"/></clipPath></defs><g clip-path="url(#ef5711a53d)"><path fill="#231f20" d="M 744.929688 382.097656 C 713.976562 322.15625 667.304688 271.613281 609.984375 235.9375 C 551.027344 199.25 483.007812 179.863281 413.25 179.863281 C 343.492188 179.863281 275.472656 199.25 216.515625 235.9375 C 159.195312 271.613281 112.523438 322.15625 81.570312 382.097656 C 80.988281 383.226562 80.988281 384.585938 81.570312 385.714844 C 112.523438 445.65625 159.195312 496.199219 216.515625 531.863281 C 275.460938 568.550781 343.492188 587.9375 413.25 587.9375 C 483.007812 587.9375 551.027344 568.550781 609.984375 531.863281 C 667.304688 496.1875 713.976562 445.644531 744.929688 385.714844 C 745.511719 384.585938 745.511719 383.226562 744.929688 382.097656 Z M 744.929688 382.097656 " fill-opacity="1" fill-rule="nonzero"/></g><path fill="#ffffff" d="M 413.25 183.796875 C 556.125 183.796875 680.046875 265.058594 741.433594 383.894531 C 680.046875 502.753906 556.125 584 413.25 584 C 270.375 584 146.453125 502.753906 85.066406 383.90625 C 146.453125 265.058594 270.375 183.796875 413.25 183.796875 Z M 574.871094 383.90625 C 574.871094 294.5625 502.511719 222.132812 413.25 222.132812 C 323.988281 222.132812 251.628906 294.550781 251.628906 383.90625 C 251.628906 473.261719 323.988281 545.679688 413.25 545.679688 C 502.511719 545.679688 574.871094 473.25 574.871094 383.90625 Z M 450.527344 298.167969 C 441.109375 305.242188 434.996094 316.503906 434.996094 329.230469 C 434.996094 350.664062 452.347656 368.03125 473.773438 368.03125 C 485.039062 368.03125 495.191406 363.214844 502.257812 355.542969 C 508.648438 348.628906 512.554688 339.386719 512.554688 329.230469 C 512.554688 307.78125 495.191406 290.414062 473.773438 290.414062 C 465.058594 290.414062 456.996094 293.300781 450.527344 298.167969 Z M 450.527344 298.167969 " fill-opacity="1" fill-rule="nonzero"/><path fill="#59c1c9" d="M 413.25 222.132812 C 502.511719 222.132812 574.871094 294.5625 574.871094 383.90625 C 574.871094 473.25 502.511719 545.679688 413.25 545.679688 C 323.988281 545.679688 251.628906 473.25 251.628906 383.90625 C 251.628906 294.5625 323.988281 222.132812 413.25 222.132812 Z M 512.554688 329.230469 C 512.554688 307.78125 495.191406 290.414062 473.773438 290.414062 C 465.058594 290.414062 456.996094 293.285156 450.527344 298.167969 C 439.101562 293.179688 426.507812 290.414062 413.25 290.414062 C 361.664062 290.414062 319.84375 332.261719 319.84375 383.90625 C 319.84375 435.550781 361.652344 477.398438 413.25 477.398438 C 464.847656 477.398438 506.65625 435.550781 506.65625 383.90625 C 506.65625 374.027344 505.113281 364.492188 502.269531 355.558594 C 508.660156 348.640625 512.554688 339.386719 512.554688 329.230469 Z M 512.554688 329.230469 " fill-opacity="1" fill-rule="nonzero"/><path fill="#231f20" d="M 413.25 218.183594 C 321.957031 218.183594 247.695312 292.527344 247.695312 383.894531 C 247.695312 475.257812 321.957031 549.613281 413.25 549.613281 C 504.542969 549.613281 578.804688 475.269531 578.804688 383.90625 C 578.804688 292.542969 504.542969 218.183594 413.25 218.183594 Z M 413.25 541.730469 C 326.300781 541.730469 255.5625 470.921875 255.5625 383.894531 C 255.5625 296.863281 326.300781 226.070312 413.25 226.070312 C 500.199219 226.070312 570.9375 296.875 570.9375 383.90625 C 570.9375 470.933594 500.199219 541.730469 413.25 541.730469 Z M 413.25 541.730469 " fill-opacity="1" fill-rule="nonzero"/><g clip-path="url(#39e3e53c23)"><path fill="#231f20" d="M 744.929688 382.097656 C 713.976562 322.15625 667.304688 271.613281 609.984375 235.9375 C 551.027344 199.25 483.007812 179.863281 413.25 179.863281 C 343.492188 179.863281 275.472656 199.25 216.515625 235.9375 C 159.195312 271.613281 112.523438 322.15625 81.570312 382.097656 C 80.988281 383.226562 80.988281 384.585938 81.570312 385.714844 C 112.523438 445.65625 159.195312 496.199219 216.515625 531.863281 C 275.460938 568.550781 343.492188 587.9375 413.25 587.9375 C 483.007812 587.9375 551.027344 568.550781 609.984375 531.863281 C 667.304688 496.1875 713.976562 445.644531 744.929688 385.714844 C 745.511719 384.585938 745.511719 383.226562 744.929688 382.097656 Z M 605.824219 525.175781 C 548.128906 561.074219 481.535156 580.0625 413.25 580.0625 C 344.964844 580.0625 278.382812 561.089844 220.675781 525.175781 C 165.132812 490.601562 119.816406 441.789062 89.503906 383.90625 C 119.804688 326.023438 165.132812 277.195312 220.675781 242.636719 C 278.382812 206.722656 344.964844 187.746094 413.25 187.746094 C 481.535156 187.746094 548.117188 206.722656 605.824219 242.636719 C 661.367188 277.195312 706.683594 326.023438 736.996094 383.90625 C 706.683594 441.789062 661.367188 490.601562 605.824219 525.175781 Z M 605.824219 525.175781 " fill-opacity="1" fill-rule="nonzero"/></g><path fill="#231f20" d="M 473.773438 286.476562 C 465.207031 286.476562 457.050781 288.992188 450.035156 293.726562 C 438.371094 288.9375 426.003906 286.476562 413.238281 286.476562 C 359.566406 286.476562 315.898438 330.1875 315.898438 383.90625 C 315.898438 437.625 359.566406 481.332031 413.238281 481.332031 C 466.90625 481.332031 510.574219 437.625 510.574219 383.90625 C 510.574219 374.570312 509.246094 365.371094 506.640625 356.515625 C 513.003906 348.867188 516.484375 339.269531 516.484375 329.242188 C 516.5 305.652344 497.328125 286.476562 473.773438 286.476562 Z M 473.773438 294.363281 C 492.984375 294.363281 508.621094 310 508.621094 329.242188 C 508.621094 338.042969 505.339844 346.433594 499.375 352.882812 C 492.796875 360.011719 483.472656 364.09375 473.789062 364.09375 C 454.578125 364.09375 438.941406 348.457031 438.941406 329.226562 C 438.941406 318.140625 444.03125 307.964844 452.90625 301.316406 C 458.949219 296.769531 466.164062 294.363281 473.773438 294.363281 Z M 473.773438 294.363281 " fill-opacity="1" fill-rule="nonzero"/></svg>