<svg xmlns="http://www.w3.org/2000/svg" xmlns:xlink="http://www.w3.org/1999/xlink" width="1080" zoomAndPan="magnify" viewBox="0 0 810 809.999993" height="1080" preserveAspectRatio="xMidYMid meet" version="1.0"><defs><clipPath id="71ef099e30"><path d="M 100 61.714844 L 728.824219 61.714844 L 728.824219 690.964844 L 100 690.964844 Z M 100 61.714844 " clip-rule="nonzero"/></clipPath></defs><g clip-path="url(#71ef099e30)"><path fill="#333333" d="M 576.226562 691.128906 L 254.007812 691.128906 C 168.859375 691.128906 100.410156 622.675781 100.410156 537.53125 L 100.410156 215.3125 C 100.410156 130.164062 168.859375 61.714844 254.007812 61.714844 L 574.558594 61.714844 C 659.703125 61.714844 728.152344 130.164062 728.152344 215.3125 L 728.152344 535.863281 C 728.152344 621.007812 659.703125 689.457031 574.558594 689.457031 Z M 254.007812 111.800781 C 197.242188 111.800781 150.496094 158.546875 150.496094 215.3125 L 150.496094 535.863281 C 150.496094 592.625 197.242188 639.371094 254.007812 639.371094 L 574.558594 639.371094 C 631.320312 639.371094 678.066406 592.625 678.066406 535.863281 L 678.066406 215.3125 C 678.066406 158.546875 631.320312 111.800781 574.558594 111.800781 Z M 254.007812 111.800781 " fill-opacity="1" fill-rule="nonzero"/></g><path fill="#333333" d="M 415.953125 579.269531 C 305.761719 579.269531 217.277344 490.785156 217.277344 380.59375 C 217.277344 270.40625 305.761719 181.921875 415.953125 181.921875 C 526.140625 181.921875 614.625 270.40625 614.625 380.59375 C 614.625 490.785156 526.140625 579.269531 415.953125 579.269531 Z M 415.953125 230.335938 C 332.476562 230.335938 265.695312 297.117188 265.695312 380.59375 C 265.695312 464.070312 332.476562 530.851562 415.953125 530.851562 C 499.429688 530.851562 566.210938 464.070312 566.210938 380.59375 C 566.210938 297.117188 499.429688 230.335938 415.953125 230.335938 Z M 415.953125 230.335938 " fill-opacity="1" fill-rule="nonzero"/><path fill="#333333" d="M 415.953125 470.75 C 365.867188 470.75 325.796875 430.679688 325.796875 380.59375 C 325.796875 330.507812 365.867188 290.441406 415.953125 290.441406 C 466.039062 290.441406 506.105469 330.507812 506.105469 380.59375 C 506.105469 430.679688 466.039062 470.75 415.953125 470.75 Z M 415.953125 340.527344 C 394.246094 340.527344 375.882812 358.890625 375.882812 380.59375 C 375.882812 402.300781 394.246094 420.664062 415.953125 420.664062 C 437.65625 420.664062 456.019531 402.300781 456.019531 380.59375 C 456.019531 358.890625 437.65625 340.527344 415.953125 340.527344 Z M 415.953125 340.527344 " fill-opacity="1" fill-rule="nonzero"/><path fill="#333333" d="M 631.320312 193.609375 C 631.320312 194.699219 631.269531 195.792969 631.160156 196.878906 C 631.054688 197.96875 630.894531 199.050781 630.679688 200.121094 C 630.464844 201.195312 630.199219 202.253906 629.882812 203.300781 C 629.566406 204.347656 629.199219 205.375 628.78125 206.386719 C 628.359375 207.394531 627.894531 208.382812 627.378906 209.347656 C 626.863281 210.3125 626.300781 211.25 625.695312 212.160156 C 625.085938 213.066406 624.4375 213.945312 623.742188 214.789062 C 623.046875 215.636719 622.316406 216.445312 621.542969 217.21875 C 620.769531 217.992188 619.957031 218.726562 619.113281 219.417969 C 618.269531 220.113281 617.390625 220.761719 616.480469 221.371094 C 615.570312 221.976562 614.636719 222.539062 613.671875 223.054688 C 612.707031 223.570312 611.71875 224.039062 610.707031 224.457031 C 609.699219 224.875 608.667969 225.242188 607.625 225.558594 C 606.578125 225.878906 605.515625 226.144531 604.445312 226.355469 C 603.371094 226.570312 602.292969 226.730469 601.203125 226.835938 C 600.113281 226.945312 599.023438 227 597.929688 227 C 596.835938 227 595.746094 226.945312 594.65625 226.835938 C 593.570312 226.730469 592.488281 226.570312 591.417969 226.355469 C 590.34375 226.144531 589.285156 225.878906 588.238281 225.558594 C 587.191406 225.242188 586.164062 224.875 585.152344 224.457031 C 584.140625 224.039062 583.15625 223.570312 582.191406 223.054688 C 581.226562 222.539062 580.289062 221.976562 579.378906 221.371094 C 578.46875 220.761719 577.59375 220.113281 576.746094 219.417969 C 575.902344 218.726562 575.09375 217.992188 574.320312 217.21875 C 573.546875 216.445312 572.8125 215.636719 572.121094 214.789062 C 571.425781 213.945312 570.773438 213.066406 570.167969 212.160156 C 569.558594 211.25 569 210.3125 568.484375 209.347656 C 567.96875 208.382812 567.5 207.394531 567.082031 206.386719 C 566.664062 205.375 566.296875 204.347656 565.976562 203.300781 C 565.660156 202.253906 565.394531 201.195312 565.179688 200.121094 C 564.96875 199.050781 564.808594 197.96875 564.699219 196.878906 C 564.59375 195.792969 564.539062 194.699219 564.539062 193.609375 C 564.539062 192.515625 564.59375 191.421875 564.699219 190.335938 C 564.808594 189.246094 564.96875 188.164062 565.179688 187.09375 C 565.394531 186.019531 565.660156 184.960938 565.976562 183.914062 C 566.296875 182.867188 566.664062 181.839844 567.082031 180.828125 C 567.5 179.820312 567.96875 178.832031 568.484375 177.867188 C 569 176.902344 569.558594 175.964844 570.167969 175.054688 C 570.773438 174.148438 571.425781 173.269531 572.121094 172.425781 C 572.8125 171.578125 573.546875 170.769531 574.320312 169.996094 C 575.09375 169.222656 575.902344 168.488281 576.746094 167.796875 C 577.59375 167.101562 578.46875 166.453125 579.378906 165.84375 C 580.289062 165.238281 581.226562 164.675781 582.191406 164.160156 C 583.15625 163.644531 584.140625 163.175781 585.152344 162.757812 C 586.164062 162.339844 587.191406 161.972656 588.238281 161.65625 C 589.285156 161.335938 590.34375 161.070312 591.417969 160.859375 C 592.488281 160.644531 593.570312 160.484375 594.65625 160.378906 C 595.746094 160.269531 596.835938 160.21875 597.929688 160.21875 C 599.023438 160.21875 600.113281 160.269531 601.203125 160.378906 C 602.292969 160.484375 603.371094 160.644531 604.445312 160.859375 C 605.515625 161.070312 606.578125 161.335938 607.625 161.65625 C 608.667969 161.972656 609.699219 162.339844 610.707031 162.757812 C 611.71875 163.175781 612.707031 163.644531 613.671875 164.160156 C 614.636719 164.675781 615.570312 165.238281 616.480469 165.84375 C 617.390625 166.453125 618.269531 167.101562 619.113281 167.796875 C 619.957031 168.488281 620.769531 169.222656 621.542969 169.996094 C 622.316406 170.769531 623.046875 171.578125 623.742188 172.425781 C 624.4375 173.269531 625.085938 174.148438 625.695312 175.054688 C 626.300781 175.964844 626.863281 176.902344 627.378906 177.867188 C 627.894531 178.832031 628.359375 179.820312 628.78125 180.828125 C 629.199219 181.839844 629.566406 182.867188 629.882812 183.914062 C 630.199219 184.960938 630.464844 186.019531 630.679688 187.09375 C 630.894531 188.164062 631.054688 189.246094 631.160156 190.335938 C 631.269531 191.421875 631.320312 192.515625 631.320312 193.609375 Z M 631.320312 193.609375 " fill-opacity="1" fill-rule="nonzero"/></svg>