<svg xmlns="http://www.w3.org/2000/svg" xmlns:xlink="http://www.w3.org/1999/xlink" width="1080" zoomAndPan="magnify" viewBox="0 0 810 809.999993" height="1080" preserveAspectRatio="xMidYMid meet" version="1.0"><defs><clipPath id="e9849e62a6"><path d="M 40.5 40.5 L 769.5 40.5 L 769.5 769.5 L 40.5 769.5 Z M 40.5 40.5 " clip-rule="nonzero"/></clipPath></defs><path fill="#000000" d="M 210.449219 304.890625 L 264.371094 304.890625 C 265.050781 304.890625 265.722656 304.957031 266.386719 305.085938 C 267.054688 305.21875 267.699219 305.417969 268.328125 305.675781 C 268.953125 305.9375 269.550781 306.253906 270.113281 306.632812 C 270.679688 307.007812 271.203125 307.4375 271.683594 307.917969 C 272.160156 308.398438 272.589844 308.921875 272.96875 309.484375 C 273.34375 310.050781 273.664062 310.644531 273.921875 311.273438 C 274.183594 311.898438 274.378906 312.546875 274.511719 313.210938 C 274.644531 313.878906 274.710938 314.550781 274.710938 315.230469 L 274.710938 611.808594 C 274.710938 612.488281 274.644531 613.160156 274.511719 613.824219 C 274.378906 614.492188 274.183594 615.136719 273.921875 615.765625 C 273.664062 616.394531 273.34375 616.988281 272.96875 617.554688 C 272.589844 618.117188 272.160156 618.640625 271.683594 619.121094 C 271.203125 619.601562 270.679688 620.027344 270.113281 620.40625 C 269.550781 620.785156 268.953125 621.101562 268.328125 621.363281 C 267.699219 621.621094 267.054688 621.816406 266.386719 621.949219 C 265.722656 622.082031 265.050781 622.148438 264.371094 622.148438 L 210.449219 622.148438 C 209.769531 622.148438 209.097656 622.082031 208.433594 621.949219 C 207.765625 621.816406 207.121094 621.621094 206.492188 621.363281 C 205.867188 621.101562 205.269531 620.785156 204.707031 620.40625 C 204.140625 620.027344 203.617188 619.601562 203.136719 619.121094 C 202.65625 618.640625 202.230469 618.117188 201.851562 617.554688 C 201.476562 616.988281 201.15625 616.394531 200.898438 615.765625 C 200.636719 615.136719 200.441406 614.492188 200.308594 613.824219 C 200.175781 613.160156 200.109375 612.488281 200.109375 611.808594 L 200.109375 315.230469 C 200.109375 314.550781 200.175781 313.878906 200.308594 313.210938 C 200.441406 312.546875 200.636719 311.898438 200.898438 311.273438 C 201.15625 310.644531 201.476562 310.050781 201.851562 309.484375 C 202.230469 308.921875 202.65625 308.398438 203.136719 307.917969 C 203.617188 307.4375 204.140625 307.007812 204.707031 306.632812 C 205.269531 306.253906 205.867188 305.9375 206.492188 305.675781 C 207.121094 305.417969 207.765625 305.21875 208.433594 305.089844 C 209.097656 304.957031 209.769531 304.890625 210.449219 304.890625 Z M 210.449219 304.890625 " fill-opacity="1" fill-rule="nonzero"/><path fill="#000000" d="M 280.84375 231.71875 C 280.761719 206.292969 262.519531 187.851562 237.414062 187.851562 C 212.304688 187.851562 193.367188 206.785156 193.367188 231.894531 C 193.367188 243.582031 197.632812 254.449219 205.367188 262.5 C 213.320312 270.769531 224.265625 275.324219 236.1875 275.324219 C 249.398438 275.324219 261.191406 270.671875 269.394531 262.167969 C 277.082031 254.214844 281.140625 243.476562 280.847656 231.894531 C 280.847656 231.839844 280.84375 231.796875 280.84375 231.71875 Z M 280.84375 231.71875 " fill-opacity="1" fill-rule="nonzero"/><path fill="#000000" d="M 576.191406 325.75 C 549.34375 301.734375 517.875 298.148438 501.507812 298.148438 C 477.050781 298.148438 453.75 304.683594 434.109375 317.050781 C 425.523438 322.453125 417.769531 328.863281 410.84375 336.277344 L 409.488281 314.5625 C 409.445312 313.910156 409.34375 313.269531 409.183594 312.636719 C 409.019531 312.003906 408.800781 311.394531 408.523438 310.804688 C 408.246094 310.214844 407.914062 309.652344 407.53125 309.125 C 407.144531 308.597656 406.714844 308.113281 406.238281 307.664062 C 405.761719 307.21875 405.25 306.820312 404.699219 306.472656 C 404.148438 306.121094 403.566406 305.828125 402.960938 305.589844 C 402.355469 305.351562 401.730469 305.167969 401.089844 305.046875 C 400.445312 304.925781 399.800781 304.867188 399.148438 304.867188 L 351.378906 304.867188 C 350.667969 304.867188 349.964844 304.941406 349.269531 305.085938 C 348.570312 305.230469 347.898438 305.449219 347.246094 305.730469 C 346.59375 306.015625 345.976562 306.363281 345.394531 306.777344 C 344.816406 307.1875 344.285156 307.65625 343.800781 308.175781 C 343.316406 308.699219 342.890625 309.265625 342.523438 309.875 C 342.15625 310.484375 341.855469 311.125 341.621094 311.796875 C 341.386719 312.46875 341.222656 313.15625 341.128906 313.863281 C 341.035156 314.566406 341.015625 315.273438 341.070312 315.984375 C 342.765625 338.621094 343.488281 362.398438 343.488281 395.480469 L 343.488281 611.808594 C 343.488281 612.488281 343.554688 613.160156 343.6875 613.824219 C 343.820312 614.492188 344.015625 615.136719 344.277344 615.765625 C 344.535156 616.394531 344.855469 616.988281 345.234375 617.554688 C 345.609375 618.117188 346.039062 618.640625 346.519531 619.121094 C 347 619.601562 347.519531 620.027344 348.085938 620.40625 C 348.648438 620.785156 349.246094 621.101562 349.875 621.363281 C 350.5 621.621094 351.148438 621.816406 351.8125 621.949219 C 352.480469 622.082031 353.152344 622.148438 353.832031 622.148438 L 407.753906 622.148438 C 408.433594 622.148438 409.105469 622.082031 409.773438 621.949219 C 410.4375 621.816406 411.085938 621.621094 411.710938 621.363281 C 412.339844 621.101562 412.9375 620.785156 413.5 620.40625 C 414.066406 620.027344 414.585938 619.601562 415.066406 619.121094 C 415.546875 618.640625 415.976562 618.117188 416.351562 617.554688 C 416.730469 616.988281 417.050781 616.394531 417.308594 615.765625 C 417.570312 615.136719 417.765625 614.492188 417.898438 613.824219 C 418.03125 613.160156 418.097656 612.488281 418.097656 611.808594 L 418.097656 433.492188 C 418.097656 425.113281 419.207031 417.242188 421.152344 411.902344 C 421.207031 411.738281 421.265625 411.566406 421.316406 411.386719 C 428.605469 387.601562 450.734375 363.550781 483.738281 363.550781 C 504.164062 363.550781 518.828125 370.535156 528.566406 384.902344 C 537.355469 397.890625 542.011719 417.238281 542.011719 440.835938 L 542.011719 611.808594 C 542.011719 612.488281 542.078125 613.160156 542.210938 613.824219 C 542.339844 614.492188 542.539062 615.136719 542.796875 615.765625 C 543.058594 616.394531 543.375 616.988281 543.753906 617.554688 C 544.128906 618.117188 544.558594 618.640625 545.039062 619.121094 C 545.519531 619.601562 546.042969 620.027344 546.605469 620.40625 C 547.171875 620.785156 547.765625 621.101562 548.394531 621.363281 C 549.019531 621.621094 549.667969 621.816406 550.332031 621.949219 C 551 622.082031 551.671875 622.148438 552.351562 622.148438 L 606.277344 622.148438 C 606.957031 622.148438 607.628906 622.082031 608.292969 621.949219 C 608.960938 621.816406 609.605469 621.621094 610.234375 621.363281 C 610.859375 621.101562 611.457031 620.785156 612.019531 620.40625 C 612.585938 620.027344 613.109375 619.601562 613.589844 619.121094 C 614.066406 618.640625 614.496094 618.117188 614.875 617.554688 C 615.25 616.988281 615.570312 616.394531 615.828125 615.765625 C 616.089844 615.136719 616.285156 614.492188 616.417969 613.824219 C 616.550781 613.160156 616.617188 612.488281 616.617188 611.808594 L 616.617188 434.71875 C 616.617188 409.488281 612.800781 387.125 605.285156 368.253906 C 598.53125 351.28125 588.738281 336.980469 576.191406 325.75 Z M 576.191406 325.75 " fill-opacity="1" fill-rule="nonzero"/><g clip-path="url(#e9849e62a6)"><path fill="#000000" d="M 674.59375 40.5 L 135.40625 40.5 C 83.070312 40.5 40.5 83.078125 40.5 135.40625 L 40.5 674.59375 C 40.5 726.921875 83.070312 769.5 135.40625 769.5 L 674.59375 769.5 C 726.921875 769.5 769.5 726.921875 769.5 674.59375 L 769.5 135.40625 C 769.5 83.078125 726.921875 40.5 674.59375 40.5 Z M 702.859375 140 L 702.859375 670 C 702.859375 671.074219 702.804688 672.148438 702.699219 673.21875 C 702.59375 674.289062 702.433594 675.351562 702.222656 676.40625 C 702.011719 677.460938 701.75 678.503906 701.4375 679.535156 C 701.125 680.5625 700.761719 681.574219 700.351562 682.570312 C 699.9375 683.5625 699.476562 684.535156 698.96875 685.484375 C 698.460938 686.429688 697.910156 687.351562 697.3125 688.246094 C 696.714844 689.140625 696.074219 690.003906 695.390625 690.835938 C 694.707031 691.667969 693.984375 692.464844 693.226562 693.226562 C 692.464844 693.984375 691.667969 694.707031 690.835938 695.390625 C 690.003906 696.074219 689.140625 696.714844 688.246094 697.3125 C 687.351562 697.910156 686.429688 698.460938 685.484375 698.96875 C 684.535156 699.476562 683.5625 699.9375 682.570312 700.351562 C 681.574219 700.761719 680.5625 701.125 679.535156 701.4375 C 678.503906 701.75 677.460938 702.011719 676.40625 702.222656 C 675.351562 702.433594 674.289062 702.59375 673.21875 702.699219 C 672.148438 702.804688 671.074219 702.859375 670 702.859375 L 140 702.859375 C 138.925781 702.859375 137.851562 702.804688 136.78125 702.699219 C 135.710938 702.59375 134.648438 702.433594 133.59375 702.222656 C 132.535156 702.011719 131.496094 701.75 130.464844 701.4375 C 129.4375 701.125 128.425781 700.761719 127.429688 700.351562 C 126.4375 699.9375 125.464844 699.476562 124.515625 698.96875 C 123.566406 698.460938 122.648438 697.910156 121.753906 697.3125 C 120.859375 696.714844 119.996094 696.074219 119.164062 695.390625 C 118.332031 694.707031 117.535156 693.984375 116.773438 693.226562 C 116.011719 692.464844 115.292969 691.667969 114.609375 690.835938 C 113.925781 690.003906 113.285156 689.140625 112.6875 688.246094 C 112.089844 687.351562 111.539062 686.429688 111.03125 685.484375 C 110.523438 684.535156 110.0625 683.5625 109.648438 682.570312 C 109.238281 681.574219 108.875 680.5625 108.5625 679.535156 C 108.25 678.503906 107.988281 677.460938 107.777344 676.40625 C 107.566406 675.351562 107.40625 674.289062 107.300781 673.21875 C 107.195312 672.148438 107.140625 671.074219 107.140625 670 L 107.140625 140 C 107.140625 138.925781 107.195312 137.851562 107.300781 136.78125 C 107.40625 135.710938 107.566406 134.648438 107.777344 133.59375 C 107.988281 132.539062 108.25 131.496094 108.5625 130.464844 C 108.875 129.4375 109.238281 128.425781 109.648438 127.429688 C 110.0625 126.4375 110.523438 125.464844 111.03125 124.515625 C 111.539062 123.566406 112.089844 122.648438 112.6875 121.753906 C 113.285156 120.859375 113.925781 119.996094 114.609375 119.164062 C 115.292969 118.332031 116.011719 117.535156 116.773438 116.773438 C 117.535156 116.015625 118.332031 115.292969 119.164062 114.609375 C 119.996094 113.925781 120.859375 113.285156 121.753906 112.6875 C 122.648438 112.089844 123.566406 111.539062 124.515625 111.03125 C 125.464844 110.523438 126.4375 110.0625 127.429688 109.648438 C 128.425781 109.238281 129.4375 108.875 130.464844 108.5625 C 131.496094 108.25 132.539062 107.988281 133.59375 107.777344 C 134.648438 107.566406 135.710938 107.40625 136.78125 107.300781 C 137.851562 107.195312 138.925781 107.140625 140 107.140625 L 670 107.140625 C 671.074219 107.140625 672.148438 107.195312 673.21875 107.300781 C 674.289062 107.40625 675.351562 107.566406 676.40625 107.777344 C 677.460938 107.988281 678.503906 108.25 679.535156 108.5625 C 680.5625 108.875 681.574219 109.238281 682.570312 109.648438 C 683.5625 110.0625 684.535156 110.523438 685.484375 111.03125 C 686.429688 111.539062 687.351562 112.089844 688.246094 112.6875 C 689.140625 113.285156 690.003906 113.925781 690.835938 114.609375 C 691.667969 115.292969 692.464844 116.011719 693.226562 116.773438 C 693.984375 117.535156 694.707031 118.332031 695.390625 119.164062 C 696.074219 119.996094 696.714844 120.859375 697.3125 121.753906 C 697.910156 122.648438 698.460938 123.566406 698.96875 124.515625 C 699.476562 125.464844 699.9375 126.4375 700.351562 127.429688 C 700.761719 128.425781 701.125 129.4375 701.4375 130.464844 C 701.75 131.496094 702.011719 132.539062 702.222656 133.59375 C 702.433594 134.648438 702.59375 135.710938 702.699219 136.78125 C 702.804688 137.851562 702.859375 138.925781 702.859375 140 Z M 702.859375 140 " fill-opacity="1" fill-rule="nonzero"/></g></svg>