<svg xmlns="http://www.w3.org/2000/svg" xmlns:xlink="http://www.w3.org/1999/xlink" width="1080" zoomAndPan="magnify" viewBox="0 0 810 809.999993" height="1080" preserveAspectRatio="xMidYMid meet" version="1.0"><defs><clipPath id="049c93e83f"><path d="M 95 149.375 L 716 149.375 L 716 414 L 95 414 Z M 95 149.375 " clip-rule="nonzero"/></clipPath><clipPath id="d990424a12"><path d="M 47 189 L 763 189 L 763 660.875 L 47 660.875 Z M 47 189 " clip-rule="nonzero"/></clipPath></defs><g clip-path="url(#049c93e83f)"><path fill="#2e2e2e" d="M 715.835938 155.253906 C 711.136719 153.300781 706.292969 151.828125 701.300781 150.839844 C 696.3125 149.851562 691.269531 149.363281 686.183594 149.375 L 123.816406 149.375 C 114.070312 149.390625 104.699219 151.265625 95.699219 155 L 405 413.6875 Z M 715.835938 155.253906 " fill-opacity="1" fill-rule="nonzero"/></g><g clip-path="url(#d990424a12)"><path fill="#2e2e2e" d="M 753.667969 190.273438 L 421.359375 466.601562 C 419.058594 468.507812 416.503906 469.964844 413.695312 470.972656 C 410.882812 471.984375 407.984375 472.488281 405 472.480469 C 402.011719 472.488281 399.113281 471.984375 396.304688 470.972656 C 393.496094 469.964844 390.941406 468.507812 388.640625 466.601562 L 56.84375 189.253906 C 53.734375 194.894531 51.355469 200.828125 49.714844 207.058594 C 48.070312 213.285156 47.207031 219.621094 47.128906 226.0625 L 47.128906 583.929688 C 47.128906 585.1875 47.160156 586.441406 47.222656 587.695312 C 47.285156 588.949219 47.375 590.199219 47.5 591.449219 C 47.621094 592.695312 47.777344 593.941406 47.960938 595.183594 C 48.144531 596.425781 48.359375 597.660156 48.605469 598.890625 C 48.847656 600.125 49.125 601.347656 49.429688 602.566406 C 49.734375 603.78125 50.066406 604.992188 50.433594 606.191406 C 50.796875 607.394531 51.191406 608.585938 51.613281 609.765625 C 52.035156 610.949219 52.488281 612.117188 52.96875 613.277344 C 53.449219 614.4375 53.957031 615.585938 54.492188 616.71875 C 55.03125 617.855469 55.59375 618.972656 56.183594 620.082031 C 56.777344 621.1875 57.394531 622.28125 58.039062 623.355469 C 58.6875 624.433594 59.355469 625.492188 60.054688 626.535156 C 60.75 627.578125 61.472656 628.605469 62.222656 629.613281 C 62.96875 630.621094 63.742188 631.609375 64.539062 632.582031 C 65.332031 633.550781 66.152344 634.5 66.996094 635.429688 C 67.839844 636.359375 68.703125 637.269531 69.589844 638.15625 C 70.480469 639.042969 71.386719 639.910156 72.316406 640.753906 C 73.246094 641.59375 74.195312 642.414062 75.167969 643.210938 C 76.136719 644.007812 77.125 644.777344 78.132812 645.527344 C 79.144531 646.273438 80.167969 646.996094 81.210938 647.695312 C 82.253906 648.390625 83.316406 649.0625 84.390625 649.707031 C 85.46875 650.351562 86.558594 650.972656 87.667969 651.5625 C 88.773438 652.15625 89.894531 652.71875 91.027344 653.253906 C 92.164062 653.792969 93.3125 654.300781 94.46875 654.78125 C 95.628906 655.261719 96.800781 655.710938 97.980469 656.136719 C 99.164062 656.558594 100.355469 656.953125 101.554688 657.316406 C 102.757812 657.679688 103.964844 658.015625 105.183594 658.320312 C 106.402344 658.625 107.625 658.898438 108.855469 659.144531 C 110.085938 659.390625 111.324219 659.605469 112.5625 659.789062 C 113.804688 659.972656 115.050781 660.125 116.300781 660.25 C 117.550781 660.371094 118.800781 660.464844 120.054688 660.523438 C 121.308594 660.585938 122.5625 660.617188 123.816406 660.617188 L 686.183594 660.617188 C 687.4375 660.617188 688.691406 660.585938 689.945312 660.523438 C 691.199219 660.464844 692.449219 660.371094 693.699219 660.25 C 694.949219 660.125 696.195312 659.972656 697.433594 659.789062 C 698.675781 659.605469 699.914062 659.390625 701.144531 659.144531 C 702.375 658.898438 703.597656 658.625 704.816406 658.320312 C 706.035156 658.015625 707.242188 657.679688 708.445312 657.316406 C 709.644531 656.953125 710.835938 656.558594 712.019531 656.136719 C 713.199219 655.710938 714.371094 655.261719 715.53125 654.78125 C 716.6875 654.300781 717.835938 653.792969 718.96875 653.253906 C 720.105469 652.71875 721.226562 652.15625 722.332031 651.5625 C 723.441406 650.972656 724.53125 650.351562 725.609375 649.707031 C 726.683594 649.0625 727.746094 648.390625 728.789062 647.695312 C 729.832031 646.996094 730.855469 646.273438 731.863281 645.527344 C 732.875 644.777344 733.863281 644.007812 734.832031 643.210938 C 735.800781 642.414062 736.753906 641.59375 737.683594 640.753906 C 738.613281 639.910156 739.519531 639.042969 740.410156 638.15625 C 741.296875 637.269531 742.160156 636.359375 743.003906 635.429688 C 743.847656 634.5 744.667969 633.550781 745.460938 632.582031 C 746.257812 631.609375 747.03125 630.621094 747.777344 629.613281 C 748.527344 628.605469 749.25 627.578125 749.945312 626.535156 C 750.644531 625.492188 751.3125 624.433594 751.960938 623.355469 C 752.605469 622.28125 753.222656 621.1875 753.8125 620.082031 C 754.40625 618.972656 754.96875 617.855469 755.507812 616.71875 C 756.042969 615.585938 756.550781 614.4375 757.03125 613.277344 C 757.511719 612.117188 757.964844 610.949219 758.386719 609.765625 C 758.808594 608.585938 759.203125 607.394531 759.566406 606.191406 C 759.929688 604.992188 760.265625 603.78125 760.570312 602.566406 C 760.875 601.347656 761.152344 600.125 761.394531 598.890625 C 761.640625 597.660156 761.855469 596.425781 762.039062 595.183594 C 762.222656 593.941406 762.378906 592.695312 762.5 591.449219 C 762.625 590.199219 762.714844 588.949219 762.777344 587.695312 C 762.839844 586.441406 762.871094 585.1875 762.871094 583.929688 L 762.871094 226.0625 C 762.816406 219.8125 762.011719 213.660156 760.457031 207.605469 C 758.898438 201.550781 756.636719 195.773438 753.667969 190.273438 Z M 753.667969 190.273438 " fill-opacity="1" fill-rule="nonzero"/></g></svg>