<svg xmlns="http://www.w3.org/2000/svg" xmlns:xlink="http://www.w3.org/1999/xlink" width="1080" zoomAndPan="magnify" viewBox="0 0 810 809.999993" height="1080" preserveAspectRatio="xMidYMid meet" version="1.0"><path fill="#333333" d="M 581.164062 503.695312 C 569.714844 496.984375 555.644531 497.125 544.25 503.894531 L 486.550781 538.269531 C 473.636719 545.96875 457.503906 545.066406 445.660156 535.816406 C 425.1875 519.828125 392.222656 492.925781 363.542969 464.246094 C 334.863281 435.566406 307.957031 402.597656 291.96875 382.125 C 282.71875 370.28125 281.816406 354.148438 289.515625 341.234375 L 323.890625 283.535156 C 330.6875 272.144531 330.746094 257.957031 324.03125 246.507812 L 239.375 101.898438 C 231.167969 87.910156 214.867188 81.027344 199.105469 84.890625 C 183.792969 88.613281 163.910156 97.695312 143.070312 118.5625 C 77.8125 183.820312 43.15625 293.886719 288.554688 539.285156 C 533.957031 784.6875 643.996094 750.054688 709.277344 684.773438 C 730.175781 663.875 739.226562 643.964844 742.980469 628.625 C 746.785156 612.890625 740.019531 596.703125 726.058594 588.523438 C 691.203125 568.136719 616.019531 524.113281 581.164062 503.695312 Z M 581.164062 503.695312 " fill-opacity="1" fill-rule="nonzero"/></svg>