<svg xmlns="http://www.w3.org/2000/svg" xmlns:xlink="http://www.w3.org/1999/xlink" width="1080" zoomAndPan="magnify" viewBox="0 0 810 809.999993" height="1080" preserveAspectRatio="xMidYMid meet" version="1.0"><defs><clipPath id="d53da4b92d"><path d="M 54 58.910156 L 719 58.910156 L 719 724 L 54 724 Z M 54 58.910156 " clip-rule="nonzero"/></clipPath></defs><path stroke-linecap="butt" transform="matrix(2.744704, 0, 0, 2.744845, -26901.578003, -76.406374)" fill-opacity="1" fill="#ff004f" fill-rule="nonzero" stroke-linejoin="round" d="M 9955.420611 59.845179 C 9975.679799 59.845179 9995.419521 65.03246 10014.599927 75.408443 C 10033.800258 85.784427 10048.900363 100.637553 10059.799194 119.964976 C 10070.700872 139.292398 10076.099052 159.495041 10076.099052 180.572903 C 10076.099052 201.405989 10070.900119 221.365278 10060.300159 240.447923 C 10049.700199 259.531991 10034.799341 274.383695 10015.700057 285.004455 C 9996.499726 295.623793 9976.419861 300.933462 9955.420611 300.933462 C 9934.67042 300.933462 9914.710103 295.623793 9895.539659 285.004455 C 9876.380601 274.383695 9861.509631 259.531991 9850.929595 240.447923 C 9840.34956 221.365278 9835.059542 201.405989 9835.059542 180.572903 C 9835.059542 159.495041 9840.469108 139.292398 9851.289664 119.964976 C 9862.120182 100.637553 9877.1107 85.784427 9896.279721 75.408443 C 9915.440202 65.03246 9935.159999 59.845179 9955.420611 59.845179 Z M 9950.170442 105.010808 L 9949.320795 105.743716 L 9949.320795 230.010745 C 9943.129894 225.617567 9936.739746 223.420266 9930.150351 223.420266 L 9927.830542 223.420266 C 9913.180168 225.046895 9905.860673 230.215674 9905.860673 238.922336 C 9905.860673 250.153616 9914.200599 255.767833 9930.88045 255.767833 L 9936.739746 255.767833 C 9952.199919 252.675389 9959.929294 246.083487 9959.929294 235.993551 L 9959.929294 128.936338 C 9961.639975 130.645508 9965.670465 132.92535 9972.01934 135.773017 C 9987.729996 140.493513 9995.580342 145.212586 9995.580342 149.933083 C 9995.580342 155.629841 9993.459781 160.065713 9989.230044 163.239275 L 9992.410886 166.535226 L 9992.769531 166.535226 C 10001.200541 160.10556 10005.299344 152.007995 10005.299344 142.24253 C 10005.299344 133.046315 9997.090353 126.0474 9980.569899 121.247209 C 9968.6791 117.095961 9961.809336 113.230762 9959.929294 109.650186 L 9959.929294 105.743716 L 9959.079646 105.010808 Z M 9955.420611 68.146251 C 9936.540499 68.146251 9918.189816 72.967789 9900.360022 82.610865 C 9882.540191 92.255364 9868.590028 106.089534 9858.499572 124.1148 C 9848.400577 142.141489 9843.361041 160.959433 9843.361041 180.572903 C 9843.361041 199.941596 9848.279605 218.516187 9858.129541 236.298099 C 9867.980901 254.08001 9881.830016 267.914181 9899.689697 277.802034 C 9917.55934 287.689887 9936.129195 292.63239 9955.420611 292.63239 C 9974.9497 292.63239 9993.650489 287.689887 10011.500207 277.802034 C 10029.399738 267.914181 10043.200465 254.08001 10053.100213 236.298099 C 10062.900337 218.516187 10067.800399 199.941596 10067.800399 180.572903 C 10067.800399 160.959433 10062.79929 142.141489 10052.599248 124.1148 C 10042.400629 106.089534 10028.400654 92.255364 10010.499701 82.610865 C 9992.669907 72.967789 9974.299299 68.146251 9955.420611 68.146251 Z M 9955.420611 68.146251 " stroke="#ff004f" stroke-width="1" stroke-opacity="1" stroke-miterlimit="2"/><path fill="#07f2ea" d="M 385.910156 60.15625 C 441.519531 60.15625 495.699219 74.398438 548.339844 102.878906 C 601.039062 131.359375 642.488281 172.125 672.402344 225.179688 C 702.320312 278.230469 717.140625 333.683594 717.140625 391.539062 C 717.140625 448.722656 702.871094 503.503906 673.773438 555.886719 C 644.683594 608.269531 603.785156 649.035156 551.363281 678.183594 C 498.664062 707.335938 443.550781 721.910156 385.910156 721.910156 C 328.957031 721.910156 274.175781 707.335938 221.558594 678.183594 C 168.96875 649.035156 128.15625 608.269531 99.117188 555.886719 C 70.078125 503.503906 55.558594 448.722656 55.558594 391.539062 C 55.558594 333.683594 70.40625 278.230469 100.105469 225.179688 C 129.832031 172.125 170.972656 131.359375 223.589844 102.878906 C 276.179688 74.398438 330.304688 60.15625 385.910156 60.15625 Z M 371.5 184.132812 L 369.167969 186.144531 L 369.167969 527.238281 C 352.179688 515.175781 334.640625 509.144531 316.554688 509.144531 L 310.183594 509.144531 C 269.972656 513.613281 249.882812 527.796875 249.882812 551.695312 C 249.882812 582.523438 272.773438 597.9375 318.554688 597.9375 L 334.640625 597.9375 C 377.074219 589.449219 398.289062 571.355469 398.289062 543.65625 L 398.289062 249.804688 C 402.980469 254.496094 414.042969 260.75 431.472656 268.570312 C 474.59375 281.523438 496.140625 294.480469 496.140625 307.433594 C 496.140625 323.074219 490.320312 335.246094 478.710938 343.957031 L 487.4375 353.003906 L 488.425781 353.003906 C 511.5625 335.359375 522.816406 313.132812 522.816406 286.328125 C 522.816406 261.085938 500.28125 241.875 454.941406 228.695312 C 422.304688 217.304688 403.449219 206.695312 398.289062 196.863281 L 398.289062 186.144531 L 395.957031 184.132812 Z M 385.910156 82.941406 C 334.089844 82.941406 283.726562 96.179688 234.789062 122.648438 C 185.878906 149.117188 147.589844 187.09375 119.894531 236.570312 C 92.175781 286.046875 78.339844 337.703125 78.339844 391.539062 C 78.339844 444.699219 91.84375 495.683594 118.878906 544.492188 C 145.914062 593.304688 183.929688 631.273438 232.949219 658.417969 C 281.996094 685.558594 332.964844 699.125 385.910156 699.125 C 439.515625 699.125 490.84375 685.558594 539.835938 658.417969 C 588.964844 631.273438 626.84375 593.304688 654.011719 544.492188 C 680.914062 495.683594 694.359375 444.699219 694.359375 391.539062 C 694.359375 337.703125 680.636719 286.046875 652.640625 236.570312 C 624.648438 187.09375 586.222656 149.117188 537.089844 122.648438 C 488.152344 96.179688 437.730469 82.941406 385.910156 82.941406 Z M 385.910156 82.941406 " fill-opacity="1" fill-rule="nonzero"/><g clip-path="url(#d53da4b92d)"><path stroke-linecap="butt" transform="matrix(2.744704, 0, 0, 2.744845, -26938.766721, -104.107357)" fill="none" stroke-linejoin="round" d="M 9955.419631 59.844399 C 9975.680243 59.844399 9995.419965 65.033102 10014.598948 75.409086 C 10033.799279 85.78507 10048.900806 100.636773 10059.799638 119.965619 C 10070.699892 139.293041 10076.099496 159.495684 10076.099496 180.573546 C 10076.099496 201.406632 10070.900563 221.364497 10060.299179 240.448566 C 10049.700642 259.532634 10034.799785 274.384337 10015.700501 285.003675 C 9996.50017 295.624436 9976.420305 300.934105 9955.419631 300.934105 C 9934.669441 300.934105 9914.710547 295.624436 9895.540103 285.003675 C 9876.379621 274.384337 9861.510074 259.532634 9850.930039 240.448566 C 9840.350003 221.364497 9835.059986 201.406632 9835.059986 180.573546 C 9835.059986 159.495684 9840.469552 139.293041 9851.290107 119.965619 C 9862.120625 100.636773 9877.109721 85.78507 9896.280164 75.409086 C 9915.440646 65.033102 9935.160443 59.844399 9955.419631 59.844399 Z M 9950.169463 105.011451 L 9949.319815 105.744359 L 9949.319815 230.011388 C 9943.130338 225.616786 9936.74019 223.419486 9930.150795 223.419486 L 9927.829563 223.419486 C 9913.179188 225.047538 9905.859694 230.214894 9905.859694 238.921556 C 9905.859694 250.152836 9914.199619 255.768476 9930.879471 255.768476 L 9936.74019 255.768476 C 9952.200363 252.676032 9959.929738 246.08413 9959.929738 235.99277 L 9959.929738 128.936981 C 9961.638996 130.646151 9965.669486 132.924569 9972.019784 135.77366 C 9987.730439 140.492733 9995.580786 145.213229 9995.580786 149.932302 C 9995.580786 155.630484 9993.460225 160.064932 9989.230488 163.238495 L 9992.409906 166.534446 L 9992.769975 166.534446 C 10001.199562 160.106203 10005.299788 152.008638 10005.299788 142.243173 C 10005.299788 133.046958 9997.089373 126.048043 9980.570343 121.246429 C 9968.679544 117.096604 9961.809779 113.231405 9959.929738 109.649406 L 9959.929738 105.744359 L 9959.08009 105.011451 Z M 9955.419631 68.145471 C 9936.53952 68.145471 9918.19026 72.968432 9900.360466 82.611508 C 9882.540635 92.254584 9868.590472 106.090177 9858.500016 124.115443 C 9848.40102 142.140709 9843.360062 160.960076 9843.360062 180.573546 C 9843.360062 199.940816 9848.280049 218.515407 9858.129985 236.297318 C 9867.979921 254.080653 9881.83046 267.913401 9899.690141 277.802677 C 9917.559784 287.69053 9936.129639 292.633033 9955.419631 292.633033 C 9974.950144 292.633033 9993.650933 287.69053 10011.500651 277.802677 C 10029.400181 267.913401 10043.200908 254.080653 10053.099233 236.297318 C 10062.900781 218.515407 10067.79942 199.940816 10067.79942 180.573546 C 10067.79942 160.960076 10062.799734 142.140709 10052.599692 124.115443 C 10042.401072 106.090177 10028.401098 92.254584 10010.500145 82.611508 C 9992.670351 72.968432 9974.299743 68.145471 9955.419631 68.145471 Z M 9955.419631 68.145471 " stroke="#07f2ea" stroke-width="1" stroke-opacity="1" stroke-miterlimit="2"/></g><path stroke-linecap="butt" transform="matrix(2.744704, 0, 0, 2.744845, -26919.388642, -94.171)" fill-opacity="1" fill="#000000" fill-rule="nonzero" stroke-linejoin="round" d="M 9955.419933 59.844815 C 9975.679121 59.844815 9995.420266 65.033519 10014.599249 75.409503 C 10033.79958 85.785486 10048.901108 100.63719 10059.799939 119.964612 C 10070.700194 139.293457 10076.099798 159.494677 10076.099798 180.572539 C 10076.099798 201.405625 10070.900864 221.364914 10060.299481 240.447559 C 10049.699521 259.531628 10034.800087 274.383331 10015.700803 285.004092 C 9996.500472 295.623429 9976.420606 300.934521 9955.419933 300.934521 C 9934.669742 300.934521 9914.709425 295.623429 9895.540404 285.004092 C 9876.379923 274.383331 9861.510376 259.531628 9850.93034 240.447559 C 9840.350305 221.364914 9835.060287 201.405625 9835.060287 180.572539 C 9835.060287 159.494677 9840.469853 139.293457 9851.290409 119.964612 C 9862.119504 100.63719 9877.110022 85.785486 9896.280466 75.409503 C 9915.440947 65.033519 9935.160744 59.844815 9955.419933 59.844815 Z M 9950.169764 105.010444 L 9949.320117 105.743352 L 9949.320117 230.010381 C 9943.129216 225.617203 9936.740491 223.419902 9930.151096 223.419902 L 9927.829864 223.419902 C 9913.17949 225.046531 9905.859995 230.215311 9905.859995 238.921972 C 9905.859995 250.153252 9914.199921 255.767469 9930.879772 255.767469 L 9936.740491 255.767469 C 9952.200664 252.676448 9959.930039 246.084546 9959.930039 235.993187 L 9959.930039 128.937397 C 9961.639297 130.646567 9965.669787 132.924986 9972.020085 135.772653 C 9987.730741 140.493149 9995.579664 145.213646 9995.579664 149.932719 C 9995.579664 155.629477 9993.460526 160.065349 9989.230789 163.238911 L 9992.410208 166.534862 L 9992.768853 166.534862 C 10001.199863 160.106619 10005.30009 152.007631 10005.30009 142.24359 C 10005.30009 133.047374 9997.089675 126.048459 9980.570644 121.246845 C 9968.679846 117.095598 9961.810081 113.230398 9959.930039 109.649822 L 9959.930039 105.743352 L 9959.080392 105.010444 Z M 9955.419933 68.145887 C 9936.539821 68.145887 9918.190561 72.967425 9900.360767 82.610501 C 9882.539513 92.255 9868.58935 106.090594 9858.500317 124.114436 C 9848.399899 142.141125 9843.360363 160.960493 9843.360363 180.572539 C 9843.360363 199.941232 9848.28035 218.515823 9858.130286 236.297735 C 9867.980223 254.079646 9881.830762 267.913817 9899.690442 277.80167 C 9917.560085 287.689523 9936.129941 292.63345 9955.419933 292.63345 C 9974.950445 292.63345 9993.649811 287.689523 10011.499529 277.80167 C 10029.400483 267.913817 10043.199787 254.079646 10053.099535 236.297735 C 10062.901082 218.515823 10067.799721 199.941232 10067.799721 180.572539 C 10067.799721 160.960493 10062.800035 142.141125 10052.599993 124.114436 C 10042.399951 106.090594 10028.399976 92.255 10010.500446 82.610501 C 9992.669229 72.967425 9974.300045 68.145887 9955.419933 68.145887 Z M 9955.419933 68.145887 " stroke="#000000" stroke-width="1" stroke-opacity="1" stroke-miterlimit="2"/></svg>