<svg xmlns="http://www.w3.org/2000/svg" xmlns:xlink="http://www.w3.org/1999/xlink" width="1080" zoomAndPan="magnify" viewBox="0 0 810 809.999993" height="1080" preserveAspectRatio="xMidYMid meet" version="1.0"><defs><clipPath id="a5fffb9af9"><path d="M 81 46.285156 L 738.75 46.285156 L 738.75 704.035156 L 81 704.035156 Z M 81 46.285156 " clip-rule="nonzero"/></clipPath></defs><g clip-path="url(#a5fffb9af9)"><path fill="#000000" d="M 192.351562 46.285156 L 627.386719 46.285156 C 658.019531 46.285156 685.859375 58.8125 706.035156 78.992188 C 726.210938 99.164062 738.734375 127.011719 738.734375 157.636719 L 738.734375 592.671875 C 738.734375 623.304688 726.210938 651.144531 706.035156 671.320312 C 685.855469 691.496094 658.015625 704.019531 627.386719 704.019531 L 192.351562 704.019531 C 161.71875 704.019531 133.878906 691.496094 113.703125 671.320312 C 93.523438 651.140625 81 623.300781 81 592.671875 L 81 157.636719 C 81 127.007812 93.523438 99.164062 113.703125 78.988281 C 133.878906 58.8125 161.71875 46.285156 192.351562 46.285156 Z M 627.386719 64.273438 L 192.351562 64.273438 C 166.683594 64.273438 143.339844 74.777344 126.417969 91.703125 C 109.492188 108.625 98.984375 131.96875 98.984375 157.636719 L 98.984375 592.671875 C 98.984375 618.339844 109.492188 641.679688 126.417969 658.605469 C 143.339844 675.527344 166.683594 686.039062 192.351562 686.039062 L 627.386719 686.039062 C 653.054688 686.039062 676.398438 675.53125 693.320312 658.605469 C 710.242188 641.679688 720.753906 618.339844 720.753906 592.671875 L 720.753906 157.636719 C 720.753906 131.96875 710.246094 108.625 693.320312 91.703125 C 676.394531 74.777344 653.054688 64.273438 627.386719 64.273438 Z M 627.386719 64.273438 " fill-opacity="1" fill-rule="nonzero"/></g><path fill="#000000" d="M 212.414062 86.761719 L 607.320312 86.761719 C 632.335938 86.761719 655.074219 96.992188 671.550781 113.472656 C 688.023438 129.949219 698.257812 152.683594 698.257812 177.699219 L 698.257812 572.605469 C 698.257812 597.621094 688.027344 620.359375 671.550781 636.835938 C 655.070312 653.308594 632.335938 663.542969 607.320312 663.542969 L 212.414062 663.542969 C 187.398438 663.542969 164.660156 653.3125 148.183594 636.835938 C 131.710938 620.355469 121.476562 597.621094 121.476562 572.605469 L 121.476562 177.699219 C 121.476562 152.683594 131.707031 129.945312 148.183594 113.472656 C 164.660156 96.992188 187.398438 86.761719 212.414062 86.761719 Z M 607.320312 104.75 L 212.414062 104.75 C 192.363281 104.75 174.125 112.957031 160.898438 126.183594 C 147.675781 139.410156 139.464844 157.648438 139.464844 177.699219 L 139.464844 572.605469 C 139.464844 592.65625 147.671875 610.894531 160.898438 624.121094 C 174.121094 637.34375 192.363281 645.554688 212.414062 645.554688 L 607.320312 645.554688 C 627.371094 645.554688 645.609375 637.347656 658.835938 624.121094 C 672.058594 610.898438 680.269531 592.65625 680.269531 572.605469 L 680.269531 177.699219 C 680.269531 157.648438 672.0625 139.414062 658.835938 126.183594 C 645.613281 112.960938 627.371094 104.75 607.320312 104.75 Z M 607.320312 104.75 " fill-opacity="1" fill-rule="nonzero"/><path fill="#000000" d="M 225.757812 195.105469 L 342.566406 195.105469 C 345.761719 195.105469 348.566406 196.773438 350.164062 199.285156 L 601.207031 540.90625 C 604.136719 544.902344 603.269531 550.519531 599.277344 553.449219 C 597.675781 554.617188 595.816406 555.183594 593.972656 555.183594 L 593.972656 555.203125 L 477.164062 555.203125 C 473.96875 555.203125 471.164062 553.535156 469.570312 551.023438 L 218.523438 209.402344 C 215.59375 205.40625 216.460938 199.792969 220.453125 196.863281 C 222.054688 195.691406 223.914062 195.125 225.757812 195.128906 Z M 338.042969 213.089844 L 243.5 213.089844 L 481.6875 537.21875 L 576.230469 537.21875 Z M 338.042969 213.089844 " fill-opacity="1" fill-rule="nonzero"/><path fill="#000000" d="M 507.6875 195.101562 L 568.664062 195.101562 C 573.632812 195.101562 577.65625 199.128906 577.65625 204.09375 C 577.65625 206.457031 576.742188 208.609375 575.246094 210.214844 L 459.210938 358.730469 C 456.164062 362.628906 450.53125 363.320312 446.632812 360.277344 C 445.972656 359.757812 445.398438 359.164062 444.921875 358.515625 L 415.359375 318.304688 C 412.828125 314.847656 413.132812 310.179688 415.84375 307.085938 L 500.625 198.578125 C 502.386719 196.320312 505.019531 195.136719 507.683594 195.136719 L 507.683594 195.101562 Z M 550.269531 213.085938 L 512.03125 213.085938 L 433.847656 313.15625 L 452.378906 338.375 Z M 398.707031 436.171875 L 308.425781 551.726562 C 306.660156 553.984375 304.027344 555.167969 301.363281 555.167969 L 301.363281 555.199219 L 240.382812 555.199219 C 235.414062 555.199219 231.390625 551.171875 231.390625 546.210938 C 231.390625 543.84375 232.304688 541.691406 233.800781 540.085938 L 355.34375 384.527344 C 358.386719 380.628906 364.019531 379.9375 367.917969 382.980469 C 368.582031 383.5 369.15625 384.09375 369.628906 384.742188 L 399.191406 424.953125 C 401.722656 428.410156 401.417969 433.078125 398.707031 436.171875 Z M 297.019531 537.21875 L 380.707031 430.105469 L 362.175781 404.886719 L 258.78125 537.21875 L 297.023438 537.21875 Z M 297.019531 537.21875 " fill-opacity="1" fill-rule="nonzero"/></svg>